<?xml version="1.0" encoding="UTF-8"?>
<!DOCTYPE svg PUBLIC "-//W3C//DTD SVG 1.1//EN" "http://www.w3.org/Graphics/SVG/1.1/DTD/svg11.dtd">
<svg xmlns="http://www.w3.org/2000/svg" version="1.1" width="225px" height="202px" style="shape-rendering:geometricPrecision; text-rendering:geometricPrecision; image-rendering:optimizeQuality; fill-rule:evenodd; clip-rule:evenodd" xmlns:xlink="http://www.w3.org/1999/xlink">
<g><path style="opacity:0.538" fill="#748275" d="M 64.5,3.5 C 88.5,3.5 112.5,3.5 136.5,3.5C 136.5,3.83333 136.5,4.16667 136.5,4.5C 112.833,4.5 89.1667,4.5 65.5,4.5C 65.5,6.83333 65.5,9.16667 65.5,11.5C 65.1667,11.5 64.8333,11.5 64.5,11.5C 64.5,8.83333 64.5,6.16667 64.5,3.5 Z"/></g>
<g><path style="opacity:0.035" fill="#ecfeeb" d="M 64.5,3.5 C 64.5,6.16667 64.5,8.83333 64.5,11.5C 62.5,11.5 60.5,11.5 58.5,11.5C 59.9187,10.5489 61.5853,10.2155 63.5,10.5C 63.1984,7.9407 63.5318,5.60737 64.5,3.5 Z"/></g>
<g><path style="opacity:1" fill="#2a1e07" d="M 136.5,4.5 C 136.5,6.83333 136.5,9.16667 136.5,11.5C 112.833,11.5 89.1667,11.5 65.5,11.5C 65.5,9.16667 65.5,6.83333 65.5,4.5C 89.1667,4.5 112.833,4.5 136.5,4.5 Z"/></g>
<g><path style="opacity:0.229" fill="#cfdcd4" d="M 136.5,3.5 C 137.468,5.60737 137.802,7.9407 137.5,10.5C 140.059,10.1984 142.393,10.5318 144.5,11.5C 141.833,11.5 139.167,11.5 136.5,11.5C 136.5,9.16667 136.5,6.83333 136.5,4.5C 136.5,4.16667 136.5,3.83333 136.5,3.5 Z"/></g>
<g><path style="opacity:1" fill="#614228" d="M 18.5,4.5 C 18.5,12.1667 18.5,19.8333 18.5,27.5C 16.8486,20.7259 15.8486,13.7259 15.5,6.5C 11.8333,5.16667 8.16667,5.16667 4.5,6.5C 4.16667,6.5 3.83333,6.5 3.5,6.5C 8.05572,4.55833 13.0557,3.89166 18.5,4.5 Z"/></g>
<g><path style="opacity:1" fill="#ecb99a" d="M 112.5,12.5 C 120.5,12.5 128.5,12.5 136.5,12.5C 136.5,14.8333 136.5,17.1667 136.5,19.5C 137.209,20.404 138.209,20.7373 139.5,20.5C 139.269,23.9002 137.436,25.9002 134,26.5C 133.667,25.8333 133.333,25.1667 133,24.5C 132.316,25.7839 132.483,26.9505 133.5,28C 130.735,30.9948 129.902,34.4948 131,38.5C 132.57,37.386 133.903,36.0526 135,34.5C 135.333,36.1667 135.667,37.8333 136,39.5C 136.251,37.567 136.751,35.7337 137.5,34C 136.833,33.6667 136.167,33.3333 135.5,33C 136.717,31.3523 137.55,29.519 138,27.5C 138.333,27.8333 138.667,28.1667 139,28.5C 138.661,37.5181 138.661,46.5181 139,55.5C 138,56.8333 137,56.8333 136,55.5C 135.501,50.5111 135.334,45.5111 135.5,40.5C 133.459,40.1459 131.626,40.1459 130,40.5C 129.83,49.343 129.33,58.0097 128.5,66.5C 128.5,53.5 128.5,40.5 128.5,27.5C 125.833,27.5 123.167,27.5 120.5,27.5C 120.5,24.8333 120.5,22.1667 120.5,19.5C 117.833,19.5 115.167,19.5 112.5,19.5C 112.5,17.1667 112.5,14.8333 112.5,12.5 Z"/></g>
<g><path style="opacity:1" fill="#723718" d="M 15.5,6.5 C 14.8949,12.7008 14.2283,18.8674 13.5,25C 14.6678,26.8709 14.1678,28.3709 12,29.5C 11.6667,29.1667 11.3333,28.8333 11,28.5C 10.3282,32.0296 8.16156,33.3629 4.5,32.5C 4.5,23.8333 4.5,15.1667 4.5,6.5C 8.16667,5.16667 11.8333,5.16667 15.5,6.5 Z"/></g>
<g><path style="opacity:1" fill="#8d8471" d="M 58.5,12.5 C 58.5,12.1667 58.5,11.8333 58.5,11.5C 60.5,11.5 62.5,11.5 64.5,11.5C 64.8333,11.5 65.1667,11.5 65.5,11.5C 89.1667,11.5 112.833,11.5 136.5,11.5C 139.167,11.5 141.833,11.5 144.5,11.5C 144.5,11.8333 144.5,12.1667 144.5,12.5C 141.833,12.5 139.167,12.5 136.5,12.5C 128.5,12.5 120.5,12.5 112.5,12.5C 110.167,12.5 107.833,12.5 105.5,12.5C 105.167,12.5 104.833,12.5 104.5,12.5C 99.5,12.5 94.5,12.5 89.5,12.5C 88.8333,12.5 88.1667,12.5 87.5,12.5C 83.1667,12.5 78.8333,12.5 74.5,12.5C 71.5,12.5 68.5,12.5 65.5,12.5C 65.5,14.8333 65.5,17.1667 65.5,19.5C 65.1667,19.5 64.8333,19.5 64.5,19.5C 64.5,17.1667 64.5,14.8333 64.5,12.5C 62.5,12.5 60.5,12.5 58.5,12.5 Z"/></g>
<g><path style="opacity:1" fill="#fbf1cf" d="M 74.5,12.5 C 78.8333,12.5 83.1667,12.5 87.5,12.5C 87.5,17.5 87.5,22.5 87.5,27.5C 81.1105,26.218 79.1105,28.5514 81.5,34.5C 83.686,35.2208 85.8526,35.8875 88,36.5C 88.4955,38.4727 88.6621,40.4727 88.5,42.5C 86.8621,43.1589 85.1955,43.8256 83.5,44.5C 80.0891,42.8641 76.5891,41.5308 73,40.5C 72.3333,39.5 72.3333,38.5 73,37.5C 75.4654,35.9448 75.9654,33.9448 74.5,31.5C 75.1152,29.8839 76.1152,28.5505 77.5,27.5C 73.851,27.098 71.1843,25.4313 69.5,22.5C 68.4019,21.603 68.4019,20.7697 69.5,20C 70.7932,19.51 72.1266,19.3433 73.5,19.5C 73.298,17.0504 73.6314,14.717 74.5,12.5 Z"/></g>
<g><path style="opacity:1" fill="#31200d" d="M 136.5,12.5 C 139.167,12.5 141.833,12.5 144.5,12.5C 144.5,14.8333 144.5,17.1667 144.5,19.5C 141.833,19.5 139.167,19.5 136.5,19.5C 136.5,17.1667 136.5,14.8333 136.5,12.5 Z"/></g>
<g><path style="opacity:1" fill="#2d1e07" d="M 58.5,12.5 C 60.5,12.5 62.5,12.5 64.5,12.5C 64.5,14.8333 64.5,17.1667 64.5,19.5C 62.5,19.5 60.5,19.5 58.5,19.5C 58.5,17.1667 58.5,14.8333 58.5,12.5 Z"/></g>
<g><path style="opacity:1" fill="#7ceaf9" d="M 89.5,12.5 C 94.5,12.5 99.5,12.5 104.5,12.5C 104.334,17.5111 104.501,22.5111 105,27.5C 107.041,28.4231 109.208,28.7564 111.5,28.5C 111.739,30.4672 111.406,32.3005 110.5,34C 104.528,33.1382 102.195,35.6382 103.5,41.5C 99.0983,41.7719 94.7649,41.4386 90.5,40.5C 89.7696,38.6587 89.1029,36.8254 88.5,35C 84.1019,35.5922 82.1019,33.7589 82.5,29.5C 84.9363,29.683 87.103,29.0163 89,27.5C 89.4993,22.5111 89.6659,17.5111 89.5,12.5 Z"/></g>
<g><path style="opacity:1" fill="#fdf1cc" d="M 69.5,22.5 C 71.1843,25.4313 73.851,27.098 77.5,27.5C 76.1152,28.5505 75.1152,29.8839 74.5,31.5C 75.9654,33.9448 75.4654,35.9448 73,37.5C 72.3333,38.5 72.3333,39.5 73,40.5C 76.5891,41.5308 80.0891,42.8641 83.5,44.5C 85.1955,43.8256 86.8621,43.1589 88.5,42.5C 88.8333,42.5 89.1667,42.5 89.5,42.5C 90.2625,43.2679 91.2625,43.7679 92.5,44C 95.8168,44.4983 99.1501,44.665 102.5,44.5C 103.501,45.7887 103.334,47.1221 102,48.5C 97.5695,52.1792 92.4028,53.5125 86.5,52.5C 86.33,53.8221 86.6634,54.9887 87.5,56C 86.2068,56.49 84.8734,56.6567 83.5,56.5C 83.7771,53.5525 83.4438,50.7191 82.5,48C 78.1794,47.501 73.8461,47.3343 69.5,47.5C 69.6633,45.1432 69.4966,42.8098 69,40.5C 67.8552,40.3809 66.6885,40.0476 65.5,39.5C 66.1884,33.8661 66.6884,28.1995 67,22.5C 67.3333,23.1667 67.6667,23.8333 68,24.5C 68.2784,23.5842 68.7784,22.9175 69.5,22.5 Z"/></g>
<g><path style="opacity:1" fill="#2d1c03" d="M 57.5,21.5 C 57.5,38.5 57.5,55.5 57.5,72.5C 56.1667,72.5 54.8333,72.5 53.5,72.5C 53.6568,55.9745 53.8234,39.3079 54,22.5C 55.0113,21.6634 56.1779,21.33 57.5,21.5 Z"/></g>
<g><path style="opacity:1" fill="#26230f" d="M 50.5,20.5 C 53.0593,20.1984 55.3926,20.5318 57.5,21.5C 56.1779,21.33 55.0113,21.6634 54,22.5C 53.8234,39.3079 53.6568,55.9745 53.5,72.5C 54.8333,72.5 56.1667,72.5 57.5,72.5C 55.3926,73.4682 53.0593,73.8016 50.5,73.5C 50.5,55.8333 50.5,38.1667 50.5,20.5 Z"/></g>
<g><path style="opacity:1" fill="#eeb898" d="M 139.5,20.5 C 140.833,20.5 142.167,20.5 143.5,20.5C 143.666,32.5277 143.166,44.5277 142,56.5C 139.833,58 140,59.1667 142.5,60C 144.81,60.4966 147.143,60.6633 149.5,60.5C 149.67,61.8221 149.337,62.9887 148.5,64C 143.123,64.0435 140.456,66.7102 140.5,72C 138.866,72.4935 137.199,72.6602 135.5,72.5C 135.425,75.2062 135.092,77.8728 134.5,80.5C 125.167,80.5 115.833,80.5 106.5,80.5C 106.286,78.8561 106.62,77.3561 107.5,76C 110.036,75.8138 112.369,75.3138 114.5,74.5C 116.5,74.5 118.5,74.5 120.5,74.5C 120.5,71.8333 120.5,69.1667 120.5,66.5C 120.5,66.1667 120.5,65.8333 120.5,65.5C 123.054,66.388 125.721,66.7214 128.5,66.5C 129.33,58.0097 129.83,49.343 130,40.5C 131.626,40.1459 133.459,40.1459 135.5,40.5C 135.334,45.5111 135.501,50.5111 136,55.5C 137,56.8333 138,56.8333 139,55.5C 138.661,46.5181 138.661,37.5181 139,28.5C 138.667,28.1667 138.333,27.8333 138,27.5C 137.55,29.519 136.717,31.3523 135.5,33C 136.167,33.3333 136.833,33.6667 137.5,34C 136.751,35.7337 136.251,37.567 136,39.5C 135.667,37.8333 135.333,36.1667 135,34.5C 133.903,36.0526 132.57,37.386 131,38.5C 129.902,34.4948 130.735,30.9948 133.5,28C 132.483,26.9505 132.316,25.7839 133,24.5C 133.333,25.1667 133.667,25.8333 134,26.5C 137.436,25.9002 139.269,23.9002 139.5,20.5 Z"/></g>
<g><path style="opacity:1" fill="#2a1d03" d="M 145.5,20.5 C 147.167,20.5 148.833,20.5 150.5,20.5C 150.5,30.1667 150.5,39.8333 150.5,49.5C 148.833,49.5 147.167,49.5 145.5,49.5C 145.5,39.8333 145.5,30.1667 145.5,20.5 Z"/></g>
<g><path style="opacity:0.686" fill="#646d59" d="M 144.5,20.5 C 144.5,20.1667 144.5,19.8333 144.5,19.5C 146.833,19.5 149.167,19.5 151.5,19.5C 151.5,29.8333 151.5,40.1667 151.5,50.5C 151.167,50.5 150.833,50.5 150.5,50.5C 150.5,50.1667 150.5,49.8333 150.5,49.5C 150.5,39.8333 150.5,30.1667 150.5,20.5C 148.833,20.5 147.167,20.5 145.5,20.5C 145.167,20.5 144.833,20.5 144.5,20.5 Z"/></g>
<g><path style="opacity:0.735" fill="#786a56" d="M 2.5,3.5 C 7.5,3.5 12.5,3.5 17.5,3.5C 18.1667,3.5 18.5,3.83333 18.5,4.5C 13.0557,3.89166 8.05572,4.55833 3.5,6.5C 3.5,15.8333 3.5,25.1667 3.5,34.5C 6.0593,34.1984 8.39263,34.5318 10.5,35.5C 7.83333,35.5 5.16667,35.5 2.5,35.5C 2.5,24.8333 2.5,14.1667 2.5,3.5 Z"/></g>
<g><path style="opacity:1" fill="#6d5943" d="M 50.5,20.5 C 52.9479,19.5269 55.6146,19.1936 58.5,19.5C 58.5,37.8333 58.5,56.1667 58.5,74.5C 57.1667,74.5 55.8333,74.5 54.5,74.5C 53.0387,75.6857 51.7054,75.6857 50.5,74.5C 50.5,74.1667 50.5,73.8333 50.5,73.5C 53.0593,73.8016 55.3926,73.4682 57.5,72.5C 57.5,55.5 57.5,38.5 57.5,21.5C 55.3926,20.5318 53.0593,20.1984 50.5,20.5 Z"/></g>
<g><path style="opacity:1" fill="#fcefcd" d="M 105.5,12.5 C 107.833,12.5 110.167,12.5 112.5,12.5C 112.5,14.8333 112.5,17.1667 112.5,19.5C 115.167,19.5 117.833,19.5 120.5,19.5C 120.5,22.1667 120.5,24.8333 120.5,27.5C 123.167,27.5 125.833,27.5 128.5,27.5C 128.5,40.5 128.5,53.5 128.5,66.5C 125.721,66.7214 123.054,66.388 120.5,65.5C 120.5,63.1667 120.5,60.8333 120.5,58.5C 120.5,55.8333 120.5,53.1667 120.5,50.5C 117.833,50.5 115.167,50.5 112.5,50.5C 111.84,48.6563 110.84,46.9896 109.5,45.5C 109.712,43.112 111.045,42.112 113.5,42.5C 115.481,42.4371 117.148,43.1038 118.5,44.5C 119.78,42.2756 119.447,40.2756 117.5,38.5C 116.311,37.5713 114.978,37.238 113.5,37.5C 113.5,38.5 113.5,39.5 113.5,40.5C 112.5,40.5 111.5,40.5 110.5,40.5C 110.5,39.5 110.5,38.5 110.5,37.5C 111.15,37.1961 111.817,36.8627 112.5,36.5C 113.655,33.5541 113.821,30.5541 113,27.5C 110.619,26.565 108.119,26.2317 105.5,26.5C 105.5,21.8333 105.5,17.1667 105.5,12.5 Z"/></g>
<g><path style="opacity:0.341" fill="#c3cec4" d="M 58.5,11.5 C 58.5,11.8333 58.5,12.1667 58.5,12.5C 58.5,14.8333 58.5,17.1667 58.5,19.5C 55.6146,19.1936 52.9479,19.5269 50.5,20.5C 50.5,38.1667 50.5,55.8333 50.5,73.5C 50.5,73.8333 50.5,74.1667 50.5,74.5C 49.1685,66.0262 48.5018,57.1929 48.5,48C 48.538,38.1348 48.8713,28.3014 49.5,18.5C 52.2116,18.2625 54.7116,18.2625 57,18.5C 57.1862,15.9644 57.6862,13.631 58.5,11.5 Z"/></g>
<g><path style="opacity:1" fill="#fdf0cd" d="M 110.5,37.5 C 110.5,38.5 110.5,39.5 110.5,40.5C 111.5,40.5 112.5,40.5 113.5,40.5C 113.5,39.5 113.5,38.5 113.5,37.5C 114.978,37.238 116.311,37.5713 117.5,38.5C 119.447,40.2756 119.78,42.2756 118.5,44.5C 117.148,43.1038 115.481,42.4371 113.5,42.5C 111.045,42.112 109.712,43.112 109.5,45.5C 110.84,46.9896 111.84,48.6563 112.5,50.5C 112.5,53.1667 112.5,55.8333 112.5,58.5C 112.5,61.1667 112.5,63.8333 112.5,66.5C 115.167,66.5 117.833,66.5 120.5,66.5C 120.5,69.1667 120.5,71.8333 120.5,74.5C 118.5,74.5 116.5,74.5 114.5,74.5C 111.5,74.5 108.5,74.5 105.5,74.5C 105.721,77.2788 105.388,79.9455 104.5,82.5C 99.1667,82.5 93.8333,82.5 88.5,82.5C 85.3752,81.5206 82.0419,81.1872 78.5,81.5C 77.3129,80.4664 76.4796,79.133 76,77.5C 75.6667,78.1667 75.3333,78.8333 75,79.5C 74.3456,76.9924 73.179,74.8258 71.5,73C 75.5635,70.1194 74.8969,68.786 69.5,69C 69.9574,68.586 70.2907,68.086 70.5,67.5C 69.0663,66.7702 67.8996,65.7702 67,64.5C 65.8162,56.2082 65.3162,47.8749 65.5,39.5C 66.6885,40.0476 67.8552,40.3809 69,40.5C 69.4966,42.8098 69.6633,45.1432 69.5,47.5C 73.8461,47.3343 78.1794,47.501 82.5,48C 83.4438,50.7191 83.7771,53.5525 83.5,56.5C 84.8734,56.6567 86.2068,56.49 87.5,56C 86.6634,54.9887 86.33,53.8221 86.5,52.5C 92.4028,53.5125 97.5695,52.1792 102,48.5C 103.334,47.1221 103.501,45.7887 102.5,44.5C 103.675,44.719 104.675,44.3857 105.5,43.5C 106.348,41.5914 106.682,39.5914 106.5,37.5C 107.833,37.5 109.167,37.5 110.5,37.5 Z"/></g>
<g><path style="opacity:1" fill="#4d3316" d="M 144.5,20.5 C 144.833,20.5 145.167,20.5 145.5,20.5C 145.5,30.1667 145.5,39.8333 145.5,49.5C 147.167,49.5 148.833,49.5 150.5,49.5C 150.5,49.8333 150.5,50.1667 150.5,50.5C 148.5,50.5 146.5,50.5 144.5,50.5C 144.5,40.5 144.5,30.5 144.5,20.5 Z"/></g>
<g><path style="opacity:1" fill="#6b3618" d="M 3.5,6.5 C 3.83333,6.5 4.16667,6.5 4.5,6.5C 4.5,15.1667 4.5,23.8333 4.5,32.5C 8.16156,33.3629 10.3282,32.0296 11,28.5C 11.3333,28.8333 11.6667,29.1667 12,29.5C 14.1678,28.3709 14.6678,26.8709 13.5,25C 14.2283,18.8674 14.8949,12.7008 15.5,6.5C 15.8486,13.7259 16.8486,20.7259 18.5,27.5C 20.6074,28.4682 22.9407,28.8016 25.5,28.5C 25.5,38.5 25.5,48.5 25.5,58.5C 23.8333,58.5 22.1667,58.5 20.5,58.5C 20.8016,61.0593 20.4682,63.3926 19.5,65.5C 19.8016,62.9407 19.4682,60.6074 18.5,58.5C 16.3926,57.5318 14.0593,57.1984 11.5,57.5C 11.825,49.9809 11.4916,42.6476 10.5,35.5C 8.39263,34.5318 6.0593,34.1984 3.5,34.5C 3.5,25.1667 3.5,15.8333 3.5,6.5 Z"/></g>
<g><path style="opacity:0.871" fill="#6a5641" d="M 18.5,27.5 C 21.1667,27.5 23.8333,27.5 26.5,27.5C 26.5,45.8333 26.5,64.1667 26.5,82.5C 25.5076,74.6841 25.1743,66.6841 25.5,58.5C 25.5,48.5 25.5,38.5 25.5,28.5C 22.9407,28.8016 20.6074,28.4682 18.5,27.5 Z"/></g>
<g><path style="opacity:1" fill="#f6d6be" d="M 58.5,19.5 C 60.5,19.5 62.5,19.5 64.5,19.5C 64.8333,19.5 65.1667,19.5 65.5,19.5C 63.7078,20.3091 61.7078,20.8091 59.5,21C 60.2529,22.487 61.0862,22.6537 62,21.5C 62.9147,22.3279 63.5814,23.3279 64,24.5C 64.4999,40.4965 64.6666,56.4965 64.5,72.5C 63.448,72.3505 62.448,72.5172 61.5,73C 62.7375,73.2321 63.7375,73.7321 64.5,74.5C 62.5,74.5 60.5,74.5 58.5,74.5C 58.5,56.1667 58.5,37.8333 58.5,19.5 Z"/></g>
<g><path style="opacity:1" fill="#a9e8e4" d="M 87.5,12.5 C 88.1667,12.5 88.8333,12.5 89.5,12.5C 89.6659,17.5111 89.4993,22.5111 89,27.5C 87.103,29.0163 84.9363,29.683 82.5,29.5C 82.1019,33.7589 84.1019,35.5922 88.5,35C 89.1029,36.8254 89.7696,38.6587 90.5,40.5C 94.7649,41.4386 99.0983,41.7719 103.5,41.5C 102.195,35.6382 104.528,33.1382 110.5,34C 111.406,32.3005 111.739,30.4672 111.5,28.5C 112.622,30.2884 112.789,32.2884 112,34.5C 109.667,35.1667 107.333,35.8333 105,36.5C 104.505,38.4727 104.338,40.4727 104.5,42.5C 99.5,42.5 94.5,42.5 89.5,42.5C 89.1667,42.5 88.8333,42.5 88.5,42.5C 88.6621,40.4727 88.4955,38.4727 88,36.5C 85.8526,35.8875 83.686,35.2208 81.5,34.5C 79.1105,28.5514 81.1105,26.218 87.5,27.5C 87.5,22.5 87.5,17.5 87.5,12.5 Z"/></g>
<g><path style="opacity:0.224" fill="#d9dbcb" d="M 2.5,3.5 C 2.5,14.1667 2.5,24.8333 2.5,35.5C 5.16667,35.5 7.83333,35.5 10.5,35.5C 10.5,43.1667 10.5,50.8333 10.5,58.5C 13.1667,58.5 15.8333,58.5 18.5,58.5C 18.5,69.1667 18.5,79.8333 18.5,90.5C 21.1667,90.5 23.8333,90.5 26.5,90.5C 26.5,103.167 26.5,115.833 26.5,128.5C 29.1667,128.5 31.8333,128.5 34.5,128.5C 34.5,141.833 34.5,155.167 34.5,168.5C 37.1667,168.5 39.8333,168.5 42.5,168.5C 42.5,176.167 42.5,183.833 42.5,191.5C 42.5,191.833 42.5,192.167 42.5,192.5C 41.5269,190.052 41.1936,187.385 41.5,184.5C 41.5,183.5 41.5,182.5 41.5,181.5C 41.5,177.5 41.5,173.5 41.5,169.5C 38.9382,170.371 36.2716,170.371 33.5,169.5C 33.5,156.5 33.5,143.5 33.5,130.5C 31.0799,130.708 28.7466,130.374 26.5,129.5C 25.5009,116.851 25.1676,104.184 25.5,91.5C 22.8333,91.5 20.1667,91.5 17.5,91.5C 17.6665,81.1613 17.4998,70.828 17,60.5C 14.7935,59.9178 12.2935,59.5845 9.5,59.5C 9.66632,52.1591 9.49966,44.8258 9,37.5C 6.25954,36.7178 3.42621,36.2178 0.5,36C 1.15637,25.0685 1.82304,14.2352 2.5,3.5 Z"/></g>
<g><path style="opacity:1" fill="#dff3e2" d="M 104.5,12.5 C 104.833,12.5 105.167,12.5 105.5,12.5C 105.5,17.1667 105.5,21.8333 105.5,26.5C 108.119,26.2317 110.619,26.565 113,27.5C 113.821,30.5541 113.655,33.5541 112.5,36.5C 111.817,36.8627 111.15,37.1961 110.5,37.5C 109.167,37.5 107.833,37.5 106.5,37.5C 106.682,39.5914 106.348,41.5914 105.5,43.5C 104.675,44.3857 103.675,44.719 102.5,44.5C 99.1501,44.665 95.8168,44.4983 92.5,44C 91.2625,43.7679 90.2625,43.2679 89.5,42.5C 94.5,42.5 99.5,42.5 104.5,42.5C 104.338,40.4727 104.505,38.4727 105,36.5C 107.333,35.8333 109.667,35.1667 112,34.5C 112.789,32.2884 112.622,30.2884 111.5,28.5C 109.208,28.7564 107.041,28.4231 105,27.5C 104.501,22.5111 104.334,17.5111 104.5,12.5 Z"/></g>
<g><path style="opacity:0.186" fill="#d2d9cc" d="M 17.5,3.5 C 17.56,2.95691 17.8933,2.62358 18.5,2.5C 19.5529,3.43832 20.2196,4.60499 20.5,6C 19.5551,12.7877 19.2218,19.621 19.5,26.5C 22.1667,26.5 24.8333,26.5 27.5,26.5C 27.897,44.5829 27.897,62.5829 27.5,80.5C 30.1272,81.0916 32.7938,81.4249 35.5,81.5C 35.5,91.8333 35.5,102.167 35.5,112.5C 40.1667,112.5 44.8333,112.5 49.5,112.5C 49.7076,110.08 49.3742,107.747 48.5,105.5C 53.1315,104.672 57.7982,104.172 62.5,104C 63.1172,101.723 63.7839,99.5563 64.5,97.5C 64.5,100.167 64.5,102.833 64.5,105.5C 64.5,105.833 64.5,106.167 64.5,106.5C 59.8333,106.5 55.1667,106.5 50.5,106.5C 50.5,108.833 50.5,111.167 50.5,113.5C 45.1667,113.5 39.8333,113.5 34.5,113.5C 34.5,103.167 34.5,92.8333 34.5,82.5C 31.8333,82.5 29.1667,82.5 26.5,82.5C 26.5,64.1667 26.5,45.8333 26.5,27.5C 23.8333,27.5 21.1667,27.5 18.5,27.5C 18.5,19.8333 18.5,12.1667 18.5,4.5C 18.5,3.83333 18.1667,3.5 17.5,3.5 Z"/></g>
<g><path style="opacity:0.76" fill="#7b6853" d="M 10.5,35.5 C 11.4916,42.6476 11.825,49.9809 11.5,57.5C 14.0593,57.1984 16.3926,57.5318 18.5,58.5C 15.8333,58.5 13.1667,58.5 10.5,58.5C 10.5,50.8333 10.5,43.1667 10.5,35.5 Z"/></g>
<g><path style="opacity:1" fill="#817f78" d="M 112.5,50.5 C 115.167,50.5 117.833,50.5 120.5,50.5C 120.5,53.1667 120.5,55.8333 120.5,58.5C 117.833,58.5 115.167,58.5 112.5,58.5C 112.5,55.8333 112.5,53.1667 112.5,50.5 Z"/></g>
<g><path style="opacity:1" fill="#291d07" d="M 151.5,50.5 C 153.833,50.5 156.167,50.5 158.5,50.5C 158.5,55.5 158.5,60.5 158.5,65.5C 156.167,65.5 153.833,65.5 151.5,65.5C 151.5,60.5 151.5,55.5 151.5,50.5 Z"/></g>
<g><path style="opacity:1" fill="#d5ad8f" d="M 136.5,19.5 C 139.167,19.5 141.833,19.5 144.5,19.5C 144.5,19.8333 144.5,20.1667 144.5,20.5C 144.5,30.5 144.5,40.5 144.5,50.5C 144.5,53.1667 144.5,55.8333 144.5,58.5C 146.5,58.5 148.5,58.5 150.5,58.5C 150.5,55.8333 150.5,53.1667 150.5,50.5C 150.833,50.5 151.167,50.5 151.5,50.5C 151.5,55.5 151.5,60.5 151.5,65.5C 150.833,65.5 150.5,65.8333 150.5,66.5C 148.5,66.5 146.5,66.5 144.5,66.5C 144.5,68.8333 144.5,71.1667 144.5,73.5C 144.5,73.8333 144.5,74.1667 144.5,74.5C 141.833,74.5 139.167,74.5 136.5,74.5C 136.5,76.8333 136.5,79.1667 136.5,81.5C 135.833,81.5 135.5,81.8333 135.5,82.5C 125.5,82.5 115.5,82.5 105.5,82.5C 105.167,82.5 104.833,82.5 104.5,82.5C 105.388,79.9455 105.721,77.2788 105.5,74.5C 108.5,74.5 111.5,74.5 114.5,74.5C 112.369,75.3138 110.036,75.8138 107.5,76C 106.62,77.3561 106.286,78.8561 106.5,80.5C 115.833,80.5 125.167,80.5 134.5,80.5C 135.092,77.8728 135.425,75.2062 135.5,72.5C 137.199,72.6602 138.866,72.4935 140.5,72C 140.456,66.7102 143.123,64.0435 148.5,64C 149.337,62.9887 149.67,61.8221 149.5,60.5C 147.143,60.6633 144.81,60.4966 142.5,60C 140,59.1667 139.833,58 142,56.5C 143.166,44.5277 143.666,32.5277 143.5,20.5C 142.167,20.5 140.833,20.5 139.5,20.5C 138.209,20.7373 137.209,20.404 136.5,19.5 Z"/></g>
<g><path style="opacity:1" fill="#fcecc9" d="M 144.5,50.5 C 146.5,50.5 148.5,50.5 150.5,50.5C 150.5,53.1667 150.5,55.8333 150.5,58.5C 148.5,58.5 146.5,58.5 144.5,58.5C 144.5,55.8333 144.5,53.1667 144.5,50.5 Z"/></g>
<g><path style="opacity:1" fill="#c0baaf" d="M 73.5,50.5 C 73.5,53.1667 73.5,55.8333 73.5,58.5C 75.8333,58.5 78.1667,58.5 80.5,58.5C 80.5,55.8333 80.5,53.1667 80.5,50.5C 81.4881,55.6405 81.8214,60.9738 81.5,66.5C 78.5,66.5 75.5,66.5 72.5,66.5C 72.1786,60.9738 72.5119,55.6405 73.5,50.5 Z"/></g>
<g><path style="opacity:1" fill="#7e7b77" d="M 73.5,50.5 C 75.8333,50.5 78.1667,50.5 80.5,50.5C 80.5,53.1667 80.5,55.8333 80.5,58.5C 78.1667,58.5 75.8333,58.5 73.5,58.5C 73.5,55.8333 73.5,53.1667 73.5,50.5 Z"/></g>
<g><path style="opacity:1" fill="#fbe6c9" d="M 74.5,12.5 C 73.6314,14.717 73.298,17.0504 73.5,19.5C 72.1266,19.3433 70.7932,19.51 69.5,20C 68.4019,20.7697 68.4019,21.603 69.5,22.5C 68.7784,22.9175 68.2784,23.5842 68,24.5C 67.6667,23.8333 67.3333,23.1667 67,22.5C 66.6884,28.1995 66.1884,33.8661 65.5,39.5C 65.3162,47.8749 65.8162,56.2082 67,64.5C 67.8996,65.7702 69.0663,66.7702 70.5,67.5C 70.2907,68.086 69.9574,68.586 69.5,69C 74.8969,68.786 75.5635,70.1194 71.5,73C 73.179,74.8258 74.3456,76.9924 75,79.5C 75.3333,78.8333 75.6667,78.1667 76,77.5C 76.4796,79.133 77.3129,80.4664 78.5,81.5C 74.1667,81.5 69.8333,81.5 65.5,81.5C 65.8016,78.9407 65.4682,76.6074 64.5,74.5C 63.7375,73.7321 62.7375,73.2321 61.5,73C 62.448,72.5172 63.448,72.3505 64.5,72.5C 64.6666,56.4965 64.4999,40.4965 64,24.5C 63.5814,23.3279 62.9147,22.3279 62,21.5C 61.0862,22.6537 60.2529,22.487 59.5,21C 61.7078,20.8091 63.7078,20.3091 65.5,19.5C 65.5,17.1667 65.5,14.8333 65.5,12.5C 68.5,12.5 71.5,12.5 74.5,12.5 Z"/></g>
<g><path style="opacity:1" fill="#bcb8a9" d="M 112.5,58.5 C 115.167,58.5 117.833,58.5 120.5,58.5C 120.5,60.8333 120.5,63.1667 120.5,65.5C 120.5,65.8333 120.5,66.1667 120.5,66.5C 117.833,66.5 115.167,66.5 112.5,66.5C 112.5,63.8333 112.5,61.1667 112.5,58.5 Z"/></g>
<g><path style="opacity:0.722" fill="#5d6959" d="M 158.5,50.5 C 159.488,55.6405 159.821,60.9738 159.5,66.5C 156.833,66.5 154.167,66.5 151.5,66.5C 151.5,69.1667 151.5,71.8333 151.5,74.5C 151.167,74.5 150.833,74.5 150.5,74.5C 148.5,74.5 146.5,74.5 144.5,74.5C 144.5,74.1667 144.5,73.8333 144.5,73.5C 146.5,73.5 148.5,73.5 150.5,73.5C 150.5,71.1667 150.5,68.8333 150.5,66.5C 150.5,65.8333 150.833,65.5 151.5,65.5C 153.833,65.5 156.167,65.5 158.5,65.5C 158.5,60.5 158.5,55.5 158.5,50.5 Z"/></g>
<g><path style="opacity:1" fill="#302108" d="M 150.5,66.5 C 150.5,68.8333 150.5,71.1667 150.5,73.5C 148.5,73.5 146.5,73.5 144.5,73.5C 144.5,71.1667 144.5,68.8333 144.5,66.5C 146.5,66.5 148.5,66.5 150.5,66.5 Z"/></g>
<g><path style="opacity:0.076" fill="#d4ebdf" d="M 144.5,11.5 C 145.468,13.6074 145.802,15.9407 145.5,18.5C 147.833,17.1667 150.167,17.1667 152.5,18.5C 152.5,28.8333 152.5,39.1667 152.5,49.5C 155.167,49.5 157.833,49.5 160.5,49.5C 160.829,55.5368 160.496,61.5368 159.5,67.5C 157.345,67.838 155.011,67.838 152.5,67.5C 152.802,70.0593 152.468,72.3926 151.5,74.5C 151.5,71.8333 151.5,69.1667 151.5,66.5C 154.167,66.5 156.833,66.5 159.5,66.5C 159.821,60.9738 159.488,55.6405 158.5,50.5C 156.167,50.5 153.833,50.5 151.5,50.5C 151.5,40.1667 151.5,29.8333 151.5,19.5C 149.167,19.5 146.833,19.5 144.5,19.5C 144.5,17.1667 144.5,14.8333 144.5,12.5C 144.5,12.1667 144.5,11.8333 144.5,11.5 Z"/></g>
<g><path style="opacity:0.141" fill="#ddebe2" d="M 144.5,74.5 C 146.5,74.5 148.5,74.5 150.5,74.5C 149.22,75.9313 147.553,76.5979 145.5,76.5C 145.261,78.4672 145.594,80.3005 146.5,82C 145.906,82.4643 145.239,82.631 144.5,82.5C 144.5,82.1667 144.5,81.8333 144.5,81.5C 144.5,79.1667 144.5,76.8333 144.5,74.5 Z"/></g>
<g><path style="opacity:0.302" fill="#d4e3d8" d="M 54.5,74.5 C 55.8333,74.5 57.1667,74.5 58.5,74.5C 58.5,76.8333 58.5,79.1667 58.5,81.5C 60.2646,82.4614 62.2646,82.7947 64.5,82.5C 64.5,85.1667 64.5,87.8333 64.5,90.5C 63.5318,88.3926 63.1984,86.0593 63.5,83.5C 61.4727,83.6621 59.4727,83.4955 57.5,83C 56.8864,81.87 56.8864,80.5366 57.5,79C 56.9923,77.1074 55.9923,75.6074 54.5,74.5 Z"/></g>
<g><path style="opacity:0.751" fill="#97806a" d="M 18.5,58.5 C 19.4682,60.6074 19.8016,62.9407 19.5,65.5C 19.5,73.5 19.5,81.5 19.5,89.5C 22.0593,89.1984 24.3926,89.5318 26.5,90.5C 23.8333,90.5 21.1667,90.5 18.5,90.5C 18.5,79.8333 18.5,69.1667 18.5,58.5 Z"/></g>
<g><path style="opacity:1" fill="#28200e" d="M 58.5,74.5 C 60.5,74.5 62.5,74.5 64.5,74.5C 64.5,76.8333 64.5,79.1667 64.5,81.5C 62.5,81.5 60.5,81.5 58.5,81.5C 58.5,79.1667 58.5,76.8333 58.5,74.5 Z"/></g>
<g><path style="opacity:1" fill="#2c2211" d="M 144.5,74.5 C 144.5,76.8333 144.5,79.1667 144.5,81.5C 141.833,81.5 139.167,81.5 136.5,81.5C 136.5,79.1667 136.5,76.8333 136.5,74.5C 139.167,74.5 141.833,74.5 144.5,74.5 Z"/></g>
<g><path style="opacity:1" fill="#2e1e04" d="M 88.5,82.5 C 88.5,84.8333 88.5,87.1667 88.5,89.5C 85.8333,89.5 83.1667,89.5 80.5,89.5C 80.5,92.1667 80.5,94.8333 80.5,97.5C 78.1667,97.5 75.8333,97.5 73.5,97.5C 73.8016,94.9407 73.4682,92.6074 72.5,90.5C 70.3926,89.5318 68.0593,89.1984 65.5,89.5C 65.5,87.1667 65.5,84.8333 65.5,82.5C 73.1667,82.5 80.8333,82.5 88.5,82.5 Z"/></g>
<g><path style="opacity:0.486" fill="#908f7b" d="M 64.5,74.5 C 65.4682,76.6074 65.8016,78.9407 65.5,81.5C 69.8333,81.5 74.1667,81.5 78.5,81.5C 82.0419,81.1872 85.3752,81.5206 88.5,82.5C 80.8333,82.5 73.1667,82.5 65.5,82.5C 65.5,84.8333 65.5,87.1667 65.5,89.5C 68.0593,89.1984 70.3926,89.5318 72.5,90.5C 69.8333,90.5 67.1667,90.5 64.5,90.5C 64.5,87.8333 64.5,85.1667 64.5,82.5C 62.2646,82.7947 60.2646,82.4614 58.5,81.5C 60.5,81.5 62.5,81.5 64.5,81.5C 64.5,79.1667 64.5,76.8333 64.5,74.5 Z"/></g>
<g><path style="opacity:1" fill="#2f1d04" d="M 105.5,82.5 C 115.5,82.5 125.5,82.5 135.5,82.5C 135.194,85.3854 135.527,88.0521 136.5,90.5C 139.167,90.5 141.833,90.5 144.5,90.5C 144.5,92.8333 144.5,95.1667 144.5,97.5C 139.5,97.5 134.5,97.5 129.5,97.5C 129.802,94.9407 129.468,92.6074 128.5,90.5C 121.018,89.508 113.352,89.1746 105.5,89.5C 105.5,87.1667 105.5,84.8333 105.5,82.5 Z"/></g>
<g><path style="opacity:1" fill="#e7b699" d="M 88.5,82.5 C 93.8333,82.5 99.1667,82.5 104.5,82.5C 104.5,84.8333 104.5,87.1667 104.5,89.5C 99.4001,88.2001 94.4001,88.2001 89.5,89.5C 89.1667,89.5 88.8333,89.5 88.5,89.5C 88.5,87.1667 88.5,84.8333 88.5,82.5 Z"/></g>
<g><path style="opacity:0.235" fill="#b6cac0" d="M 144.5,82.5 C 142.393,83.4682 140.059,83.8016 137.5,83.5C 137.261,85.4672 137.594,87.3005 138.5,89C 140.81,89.4966 143.143,89.6633 145.5,89.5C 145.5,92.1667 145.5,94.8333 145.5,97.5C 147.703,97.0651 149.703,97.0651 151.5,97.5C 151.5,97.8333 151.5,98.1667 151.5,98.5C 149.5,98.5 147.5,98.5 145.5,98.5C 144.833,98.5 144.5,98.1667 144.5,97.5C 144.5,95.1667 144.5,92.8333 144.5,90.5C 141.833,90.5 139.167,90.5 136.5,90.5C 136.5,87.8333 136.5,85.1667 136.5,82.5C 139.167,82.5 141.833,82.5 144.5,82.5 Z"/></g>
<g><path style="opacity:0.788" fill="#4e5243" d="M 136.5,81.5 C 139.167,81.5 141.833,81.5 144.5,81.5C 144.5,81.8333 144.5,82.1667 144.5,82.5C 141.833,82.5 139.167,82.5 136.5,82.5C 136.5,85.1667 136.5,87.8333 136.5,90.5C 135.527,88.0521 135.194,85.3854 135.5,82.5C 135.5,81.8333 135.833,81.5 136.5,81.5 Z"/></g>
<g><path style="opacity:1" fill="#ebc28b" d="M 104.5,89.5 C 104.5,89.8333 104.5,90.1667 104.5,90.5C 99.5,90.5 94.5,90.5 89.5,90.5C 89.5,90.1667 89.5,89.8333 89.5,89.5C 94.4001,88.2001 99.4001,88.2001 104.5,89.5 Z"/></g>
<g><path style="opacity:1" fill="#753a18" d="M 88.5,89.5 C 88.5,89.8333 88.5,90.1667 88.5,90.5C 86.1667,90.5 83.8333,90.5 81.5,90.5C 81.8016,93.0593 81.4682,95.3926 80.5,97.5C 80.5,94.8333 80.5,92.1667 80.5,89.5C 83.1667,89.5 85.8333,89.5 88.5,89.5 Z"/></g>
<g><path style="opacity:1" fill="#6d3815" d="M 104.5,82.5 C 104.833,82.5 105.167,82.5 105.5,82.5C 105.5,84.8333 105.5,87.1667 105.5,89.5C 113.352,89.1746 121.018,89.508 128.5,90.5C 120.5,90.5 112.5,90.5 104.5,90.5C 104.5,90.1667 104.5,89.8333 104.5,89.5C 104.5,87.1667 104.5,84.8333 104.5,82.5 Z"/></g>
<g><path style="opacity:0.005" fill="#fefffe" d="M 71.5,96.5 C 69.9719,96.4827 69.4719,95.816 70,94.5C 70.7172,95.0442 71.2172,95.7109 71.5,96.5 Z"/></g>
<g><path style="opacity:1" fill="#fad476" d="M 89.5,90.5 C 94.5,90.5 99.5,90.5 104.5,90.5C 104.5,92.8333 104.5,95.1667 104.5,97.5C 99.5,97.5 94.5,97.5 89.5,97.5C 89.5,95.1667 89.5,92.8333 89.5,90.5 Z"/></g>
<g><path style="opacity:1" fill="#eae070" d="M 90.5,91.5 C 94.1817,91.3347 97.8484,91.5014 101.5,92C 103.107,93.049 103.773,94.549 103.5,96.5C 99.1667,96.5 94.8333,96.5 90.5,96.5C 90.5,94.8333 90.5,93.1667 90.5,91.5 Z"/></g>
<g><path style="opacity:0.435" fill="#9ca89d" d="M 64.5,90.5 C 67.1667,90.5 69.8333,90.5 72.5,90.5C 73.4682,92.6074 73.8016,94.9407 73.5,97.5C 73.5,98.1667 73.1667,98.5 72.5,98.5C 70.1667,98.5 67.8333,98.5 65.5,98.5C 65.5,100.833 65.5,103.167 65.5,105.5C 65.1667,105.5 64.8333,105.5 64.5,105.5C 64.5,102.833 64.5,100.167 64.5,97.5C 67.0593,97.8016 69.3926,97.4682 71.5,96.5C 72.4511,95.0813 72.7845,93.4147 72.5,91.5C 69.6146,91.8064 66.9479,91.4731 64.5,90.5 Z"/></g>
<g><path style="opacity:1" fill="#eda651" d="M 88.5,89.5 C 88.8333,89.5 89.1667,89.5 89.5,89.5C 89.5,89.8333 89.5,90.1667 89.5,90.5C 89.5,92.8333 89.5,95.1667 89.5,97.5C 94.5,97.5 99.5,97.5 104.5,97.5C 104.5,97.8333 104.5,98.1667 104.5,98.5C 99.1667,98.5 93.8333,98.5 88.5,98.5C 88.5,95.8333 88.5,93.1667 88.5,90.5C 88.5,90.1667 88.5,89.8333 88.5,89.5 Z"/></g>
<g><path style="opacity:1" fill="#bb5a2a" d="M 104.5,90.5 C 112.5,90.5 120.5,90.5 128.5,90.5C 128.194,93.3854 128.527,96.0521 129.5,98.5C 133.833,99.1667 138.167,99.8333 142.5,100.5C 137.833,100.5 133.167,100.5 128.5,100.5C 128.517,102.565 128.85,104.565 129.5,106.5C 129.5,111.167 129.5,115.833 129.5,120.5C 131.833,120.5 134.167,120.5 136.5,120.5C 136.5,120.833 136.5,121.167 136.5,121.5C 133.833,121.5 131.167,121.5 128.5,121.5C 128.821,116.305 128.487,111.305 127.5,106.5C 125.393,105.532 123.059,105.198 120.5,105.5C 120.5,113.167 120.5,120.833 120.5,128.5C 115.167,128.5 109.833,128.5 104.5,128.5C 104.5,127.833 104.5,127.167 104.5,126.5C 104.5,124.833 104.5,123.167 104.5,121.5C 104.833,121.5 105.167,121.5 105.5,121.5C 105.5,121.833 105.5,122.167 105.5,122.5C 105.5,124.167 105.5,125.833 105.5,127.5C 110.167,127.5 114.833,127.5 119.5,127.5C 119.666,119.493 119.5,111.493 119,103.5C 117.033,102.269 117.199,101.269 119.5,100.5C 121.747,101.374 124.08,101.708 126.5,101.5C 125.841,98.5448 125.508,95.5448 125.5,92.5C 121.818,92.3347 118.152,92.5014 114.5,93C 113.167,93.6667 113.167,94.3333 114.5,95C 113.289,96.5778 111.955,96.7445 110.5,95.5C 111.523,93.1052 110.523,92.1052 107.5,92.5C 107.5,94.1667 107.5,95.8333 107.5,97.5C 106.791,98.404 105.791,98.7373 104.5,98.5C 104.5,98.1667 104.5,97.8333 104.5,97.5C 104.5,95.1667 104.5,92.8333 104.5,90.5 Z"/></g>
<g><path style="opacity:1" fill="#904823" d="M 25.5,58.5 C 25.1743,66.6841 25.5076,74.6841 26.5,82.5C 28.2646,83.4614 30.2646,83.7947 32.5,83.5C 32.5,97.5 32.5,111.5 32.5,125.5C 31.1667,125.5 29.8333,125.5 28.5,125.5C 28.8266,116.318 28.4933,107.318 27.5,98.5C 27.8064,95.6146 27.4731,92.9479 26.5,90.5C 24.3926,89.5318 22.0593,89.1984 19.5,89.5C 19.5,81.5 19.5,73.5 19.5,65.5C 20.4682,63.3926 20.8016,61.0593 20.5,58.5C 22.1667,58.5 23.8333,58.5 25.5,58.5 Z"/></g>
<g><path style="opacity:1" fill="#321d04" d="M 72.5,98.5 C 72.5,100.833 72.5,103.167 72.5,105.5C 70.1667,105.5 67.8333,105.5 65.5,105.5C 65.5,103.167 65.5,100.833 65.5,98.5C 67.8333,98.5 70.1667,98.5 72.5,98.5 Z"/></g>
<g><path style="opacity:1" fill="#ea662c" d="M 107.5,97.5 C 109.467,97.2606 111.301,97.5939 113,98.5C 113.667,105.833 113.667,113.167 113,120.5C 110.699,121.867 108.199,122.534 105.5,122.5C 105.5,122.167 105.5,121.833 105.5,121.5C 105.753,119.173 105.086,117.173 103.5,115.5C 98.8804,114.507 94.2137,114.173 89.5,114.5C 89.0074,116.806 88.6741,119.139 88.5,121.5C 86.9317,122.473 85.265,122.64 83.5,122C 82.8767,119.393 82.21,116.893 81.5,114.5C 81.5,114.167 81.5,113.833 81.5,113.5C 81.5,111.167 81.5,108.833 81.5,106.5C 76.5,107.5 74.5,105.5 75.5,100.5C 78.2903,100.778 80.7903,100.111 83,98.5C 85.0503,99.7912 87.217,100.291 89.5,100C 88.944,99.6174 88.6107,99.1174 88.5,98.5C 93.8333,98.5 99.1667,98.5 104.5,98.5C 105.791,98.7373 106.791,98.404 107.5,97.5 Z"/></g>
<g><path style="opacity:1" fill="#c75624" d="M 105.5,122.5 C 108.199,122.534 110.699,121.867 113,120.5C 113.667,113.167 113.667,105.833 113,98.5C 111.301,97.5939 109.467,97.2606 107.5,97.5C 107.5,95.8333 107.5,94.1667 107.5,92.5C 110.523,92.1052 111.523,93.1052 110.5,95.5C 111.955,96.7445 113.289,96.5778 114.5,95C 113.167,94.3333 113.167,93.6667 114.5,93C 118.152,92.5014 121.818,92.3347 125.5,92.5C 125.508,95.5448 125.841,98.5448 126.5,101.5C 124.08,101.708 121.747,101.374 119.5,100.5C 117.199,101.269 117.033,102.269 119,103.5C 119.5,111.493 119.666,119.493 119.5,127.5C 114.833,127.5 110.167,127.5 105.5,127.5C 105.5,125.833 105.5,124.167 105.5,122.5 Z"/></g>
<g><path style="opacity:1" fill="#c24f1a" d="M 142.5,100.5 C 143.491,107.313 143.825,114.313 143.5,121.5C 141.167,121.5 138.833,121.5 136.5,121.5C 136.5,121.167 136.5,120.833 136.5,120.5C 136.5,115.833 136.5,111.167 136.5,106.5C 134.167,106.5 131.833,106.5 129.5,106.5C 128.85,104.565 128.517,102.565 128.5,100.5C 133.167,100.5 137.833,100.5 142.5,100.5 Z"/></g>
<g><path style="opacity:1" fill="#9e512a" d="M 129.5,98.5 C 134.43,98.1975 139.263,98.5308 144,99.5C 144.5,106.826 144.666,114.159 144.5,121.5C 144.167,121.5 143.833,121.5 143.5,121.5C 143.825,114.313 143.491,107.313 142.5,100.5C 138.167,99.8333 133.833,99.1667 129.5,98.5 Z"/></g>
<g><path style="opacity:0.816" fill="#846247" d="M 26.5,90.5 C 27.4731,92.9479 27.8064,95.6146 27.5,98.5C 27.5,108.167 27.5,117.833 27.5,127.5C 29.8333,127.5 32.1667,127.5 34.5,127.5C 34.5,127.833 34.5,128.167 34.5,128.5C 31.8333,128.5 29.1667,128.5 26.5,128.5C 26.5,115.833 26.5,103.167 26.5,90.5 Z"/></g>
<g><path style="opacity:1" fill="#281f0b" d="M 64.5,106.5 C 64.5,108.833 64.5,111.167 64.5,113.5C 59.8333,113.5 55.1667,113.5 50.5,113.5C 50.5,111.167 50.5,108.833 50.5,106.5C 55.1667,106.5 59.8333,106.5 64.5,106.5 Z"/></g>
<g><path style="opacity:1" fill="#d05f2c" d="M 88.5,90.5 C 88.5,93.1667 88.5,95.8333 88.5,98.5C 88.6107,99.1174 88.944,99.6174 89.5,100C 87.217,100.291 85.0503,99.7912 83,98.5C 80.7903,100.111 78.2903,100.778 75.5,100.5C 74.5,105.5 76.5,107.5 81.5,106.5C 81.5,108.833 81.5,111.167 81.5,113.5C 78.6146,113.194 75.9479,113.527 73.5,114.5C 72.5386,116.265 72.2053,118.265 72.5,120.5C 70.5,120.5 68.5,120.5 66.5,120.5C 66.3314,115.819 65.9981,111.152 65.5,106.5C 68.0593,106.802 70.3926,106.468 72.5,105.5C 72.5,103.167 72.5,100.833 72.5,98.5C 73.1667,98.5 73.5,98.1667 73.5,97.5C 75.8333,97.5 78.1667,97.5 80.5,97.5C 81.4682,95.3926 81.8016,93.0593 81.5,90.5C 83.8333,90.5 86.1667,90.5 88.5,90.5 Z"/></g>
<g><path style="opacity:1" fill="#351600" d="M 127.5,106.5 C 127.5,111.833 127.5,117.167 127.5,122.5C 126.513,117.695 126.179,112.695 126.5,107.5C 125.167,107.5 123.833,107.5 122.5,107.5C 122.334,113.509 122.501,119.509 123,125.5C 124.47,126.267 125.97,126.933 127.5,127.5C 127.5,127.833 127.5,128.167 127.5,128.5C 125.5,128.5 123.5,128.5 121.5,128.5C 121.5,121.167 121.5,113.833 121.5,106.5C 123.5,106.5 125.5,106.5 127.5,106.5 Z"/></g>
<g><path style="opacity:1" fill="#552308" d="M 128.5,90.5 C 129.468,92.6074 129.802,94.9407 129.5,97.5C 134.5,97.5 139.5,97.5 144.5,97.5C 144.5,98.1667 144.833,98.5 145.5,98.5C 145.827,107.682 145.493,116.682 144.5,125.5C 144.5,124.167 144.5,122.833 144.5,121.5C 144.666,114.159 144.5,106.826 144,99.5C 139.263,98.5308 134.43,98.1975 129.5,98.5C 128.527,96.0521 128.194,93.3854 128.5,90.5 Z"/></g>
<g><path style="opacity:1" fill="#2c1d02" d="M 127.5,122.5 C 127.5,124.167 127.5,125.833 127.5,127.5C 125.97,126.933 124.47,126.267 123,125.5C 122.501,119.509 122.334,113.509 122.5,107.5C 123.833,107.5 125.167,107.5 126.5,107.5C 126.179,112.695 126.513,117.695 127.5,122.5 Z"/></g>
<g><path style="opacity:1" fill="#6c8075" d="M 34.5,114.5 C 34.5,114.167 34.5,113.833 34.5,113.5C 39.8333,113.5 45.1667,113.5 50.5,113.5C 55.1667,113.5 59.8333,113.5 64.5,113.5C 65.4767,116.287 65.81,119.287 65.5,122.5C 65.5,124.167 65.5,125.833 65.5,127.5C 65.5,127.833 65.5,128.167 65.5,128.5C 65.5,130.833 65.5,133.167 65.5,135.5C 65.5,135.833 65.5,136.167 65.5,136.5C 65.1667,136.5 64.8333,136.5 64.5,136.5C 64.5,133.833 64.5,131.167 64.5,128.5C 64.5,126.167 64.5,123.833 64.5,121.5C 64.5,119.167 64.5,116.833 64.5,114.5C 62.5,114.5 60.5,114.5 58.5,114.5C 55.8333,114.5 53.1667,114.5 50.5,114.5C 50.5,116.833 50.5,119.167 50.5,121.5C 50.5,121.833 50.5,122.167 50.5,122.5C 47.8333,122.5 45.1667,122.5 42.5,122.5C 42.5,122.167 42.5,121.833 42.5,121.5C 44.8333,121.5 47.1667,121.5 49.5,121.5C 49.5,119.167 49.5,116.833 49.5,114.5C 44.5,114.5 39.5,114.5 34.5,114.5 Z"/></g>
<g><path style="opacity:1" fill="#92502c" d="M 64.5,105.5 C 64.8333,105.5 65.1667,105.5 65.5,105.5C 67.8333,105.5 70.1667,105.5 72.5,105.5C 70.3926,106.468 68.0593,106.802 65.5,106.5C 65.9981,111.152 66.3314,115.819 66.5,120.5C 68.5,120.5 70.5,120.5 72.5,120.5C 72.2053,118.265 72.5386,116.265 73.5,114.5C 73.5,117.167 73.5,119.833 73.5,122.5C 70.8333,122.5 68.1667,122.5 65.5,122.5C 65.81,119.287 65.4767,116.287 64.5,113.5C 64.5,111.167 64.5,108.833 64.5,106.5C 64.5,106.167 64.5,105.833 64.5,105.5 Z"/></g>
<g><path style="opacity:1" fill="#5a2204" d="M 127.5,106.5 C 125.5,106.5 123.5,106.5 121.5,106.5C 121.5,113.833 121.5,121.167 121.5,128.5C 121.167,128.5 120.833,128.5 120.5,128.5C 120.5,120.833 120.5,113.167 120.5,105.5C 123.059,105.198 125.393,105.532 127.5,106.5 Z"/></g>
<g><path style="opacity:1" fill="#e96831" d="M 129.5,106.5 C 131.833,106.5 134.167,106.5 136.5,106.5C 136.5,111.167 136.5,115.833 136.5,120.5C 134.167,120.5 131.833,120.5 129.5,120.5C 129.5,115.833 129.5,111.167 129.5,106.5 Z"/></g>
<g><path style="opacity:1" fill="#291e07" d="M 34.5,114.5 C 39.5,114.5 44.5,114.5 49.5,114.5C 49.5,116.833 49.5,119.167 49.5,121.5C 47.1667,121.5 44.8333,121.5 42.5,121.5C 41.5318,123.607 41.1984,125.941 41.5,128.5C 39.1667,128.5 36.8333,128.5 34.5,128.5C 34.5,128.167 34.5,127.833 34.5,127.5C 34.5,123.167 34.5,118.833 34.5,114.5 Z"/></g>
<g><path style="opacity:1" fill="#73bec4" d="M 58.5,114.5 C 60.5,114.5 62.5,114.5 64.5,114.5C 64.5,116.833 64.5,119.167 64.5,121.5C 62.6208,122.341 60.6208,122.675 58.5,122.5C 58.5,122.167 58.5,121.833 58.5,121.5C 58.5,119.167 58.5,116.833 58.5,114.5 Z"/></g>
<g><path style="opacity:1" fill="#8d4620" d="M 73.5,114.5 C 75.9479,113.527 78.6146,113.194 81.5,113.5C 81.5,113.833 81.5,114.167 81.5,114.5C 81.5,119.167 81.5,123.833 81.5,128.5C 81.1667,128.5 80.8333,128.5 80.5,128.5C 80.5,123.833 80.5,119.167 80.5,114.5C 78.1667,114.5 75.8333,114.5 73.5,114.5 Z"/></g>
<g><path style="opacity:1" fill="#cc5a22" d="M 105.5,121.5 C 105.167,121.5 104.833,121.5 104.5,121.5C 99.1667,121.5 93.8333,121.5 88.5,121.5C 88.6741,119.139 89.0074,116.806 89.5,114.5C 94.2137,114.173 98.8804,114.507 103.5,115.5C 105.086,117.173 105.753,119.173 105.5,121.5 Z"/></g>
<g><path style="opacity:1" fill="#88e4ef" d="M 58.5,114.5 C 58.5,116.833 58.5,119.167 58.5,121.5C 55.8333,121.5 53.1667,121.5 50.5,121.5C 50.5,119.167 50.5,116.833 50.5,114.5C 53.1667,114.5 55.8333,114.5 58.5,114.5 Z"/></g>
<g><path style="opacity:1" fill="#7f4c2c" d="M 26.5,82.5 C 29.1667,82.5 31.8333,82.5 34.5,82.5C 34.5,92.8333 34.5,103.167 34.5,113.5C 34.5,113.833 34.5,114.167 34.5,114.5C 34.5,118.833 34.5,123.167 34.5,127.5C 32.1667,127.5 29.8333,127.5 27.5,127.5C 27.5,117.833 27.5,108.167 27.5,98.5C 28.4933,107.318 28.8266,116.318 28.5,125.5C 29.8333,125.5 31.1667,125.5 32.5,125.5C 32.5,111.5 32.5,97.5 32.5,83.5C 30.2646,83.7947 28.2646,83.4614 26.5,82.5 Z"/></g>
<g><path style="opacity:1" fill="#e8a657" d="M 88.5,121.5 C 93.8333,121.5 99.1667,121.5 104.5,121.5C 104.5,123.167 104.5,124.833 104.5,126.5C 100.382,123.805 95.7157,122.805 90.5,123.5C 90.5,125.167 90.5,126.833 90.5,128.5C 89.8333,128.5 89.1667,128.5 88.5,128.5C 88.5,126.167 88.5,123.833 88.5,121.5 Z"/></g>
<g><path style="opacity:1" fill="#eeb08d" d="M 128.5,122.5 C 128.5,122.167 128.5,121.833 128.5,121.5C 131.167,121.5 133.833,121.5 136.5,121.5C 138.833,121.5 141.167,121.5 143.5,121.5C 143.833,121.5 144.167,121.5 144.5,121.5C 144.5,122.833 144.5,124.167 144.5,125.5C 142.139,125.674 139.806,126.007 137.5,126.5C 137.67,125.178 137.337,124.011 136.5,123C 133.854,122.503 131.187,122.336 128.5,122.5 Z"/></g>
<g><path style="opacity:1" fill="#394f43" d="M 42.5,121.5 C 42.5,121.833 42.5,122.167 42.5,122.5C 42.5,124.5 42.5,126.5 42.5,128.5C 44.8333,128.5 47.1667,128.5 49.5,128.5C 47.3926,129.468 45.0593,129.802 42.5,129.5C 42.1667,129.5 41.8333,129.5 41.5,129.5C 41.5,129.167 41.5,128.833 41.5,128.5C 41.1984,125.941 41.5318,123.607 42.5,121.5 Z"/></g>
<g><path style="opacity:1" fill="#93e1e3" d="M 42.5,122.5 C 45.1667,122.5 47.8333,122.5 50.5,122.5C 50.6747,124.621 50.3414,126.621 49.5,128.5C 47.1667,128.5 44.8333,128.5 42.5,128.5C 42.5,126.5 42.5,124.5 42.5,122.5 Z"/></g>
<g><path style="opacity:1" fill="#ecf4d8" d="M 50.5,121.5 C 53.1667,121.5 55.8333,121.5 58.5,121.5C 58.5,121.833 58.5,122.167 58.5,122.5C 57.6993,124.042 57.366,125.708 57.5,127.5C 55.2646,127.205 53.2646,127.539 51.5,128.5C 50.8333,128.5 50.1667,128.5 49.5,128.5C 50.3414,126.621 50.6747,124.621 50.5,122.5C 50.5,122.167 50.5,121.833 50.5,121.5 Z"/></g>
<g><path style="opacity:1" fill="#c55e23" d="M 81.5,114.5 C 82.21,116.893 82.8767,119.393 83.5,122C 85.265,122.64 86.9317,122.473 88.5,121.5C 88.5,123.833 88.5,126.167 88.5,128.5C 86.1667,128.5 83.8333,128.5 81.5,128.5C 81.5,123.833 81.5,119.167 81.5,114.5 Z"/></g>
<g><path style="opacity:1" fill="#f2e4c1" d="M 128.5,122.5 C 131.187,122.336 133.854,122.503 136.5,123C 137.337,124.011 137.67,125.178 137.5,126.5C 139.806,126.007 142.139,125.674 144.5,125.5C 144.5,126.5 144.5,127.5 144.5,128.5C 141.615,128.194 138.948,128.527 136.5,129.5C 135.513,134.305 135.179,139.305 135.5,144.5C 133.167,144.5 130.833,144.5 128.5,144.5C 128.5,137.167 128.5,129.833 128.5,122.5 Z"/></g>
<g><path style="opacity:1" fill="#e8cbae" d="M 64.5,121.5 C 64.5,123.833 64.5,126.167 64.5,128.5C 60.1667,128.5 55.8333,128.5 51.5,128.5C 53.2646,127.539 55.2646,127.205 57.5,127.5C 57.366,125.708 57.6993,124.042 58.5,122.5C 60.6208,122.675 62.6208,122.341 64.5,121.5 Z"/></g>
<g><path style="opacity:1" fill="#debd58" d="M 104.5,126.5 C 104.5,127.167 104.5,127.833 104.5,128.5C 99.8333,128.5 95.1667,128.5 90.5,128.5C 90.5,126.833 90.5,125.167 90.5,123.5C 95.7157,122.805 100.382,123.805 104.5,126.5 Z"/></g>
<g><path style="opacity:0.007" fill="#e6f2ea" d="M 65.5,128.5 C 67.8333,128.5 70.1667,128.5 72.5,128.5C 72.5,129.5 72.5,130.5 72.5,131.5C 70.5648,130.85 68.5648,130.517 66.5,130.5C 66.7845,132.415 66.4511,134.081 65.5,135.5C 65.5,133.167 65.5,130.833 65.5,128.5 Z"/></g>
<g><path style="opacity:1" fill="#d0b057" d="M 80.5,128.5 C 80.8333,128.5 81.1667,128.5 81.5,128.5C 83.8333,128.5 86.1667,128.5 88.5,128.5C 89.1667,128.5 89.8333,128.5 90.5,128.5C 88.7739,130.82 88.1072,133.487 88.5,136.5C 86.1667,136.5 83.8333,136.5 81.5,136.5C 81.5,138.833 81.5,141.167 81.5,143.5C 81.5,143.833 81.5,144.167 81.5,144.5C 81.1667,144.5 80.8333,144.5 80.5,144.5C 80.5,139.167 80.5,133.833 80.5,128.5 Z"/></g>
<g><path style="opacity:1" fill="#e1ba5a" d="M 104.5,128.5 C 109.833,128.5 115.167,128.5 120.5,128.5C 120.5,133.833 120.5,139.167 120.5,144.5C 107.5,144.5 94.5,144.5 81.5,144.5C 81.5,144.167 81.5,143.833 81.5,143.5C 91.8333,143.5 102.167,143.5 112.5,143.5C 112.5,141.167 112.5,138.833 112.5,136.5C 109.833,136.5 107.167,136.5 104.5,136.5C 104.5,133.833 104.5,131.167 104.5,128.5 Z"/></g>
<g><path style="opacity:1" fill="#2f220f" d="M 49.5,128.5 C 50.1667,128.5 50.8333,128.5 51.5,128.5C 55.8333,128.5 60.1667,128.5 64.5,128.5C 64.5,131.167 64.5,133.833 64.5,136.5C 57.1667,136.5 49.8333,136.5 42.5,136.5C 42.5,134.167 42.5,131.833 42.5,129.5C 45.0593,129.802 47.3926,129.468 49.5,128.5 Z"/></g>
<g><path style="opacity:1" fill="#312917" d="M 145.5,98.5 C 147.5,98.5 149.5,98.5 151.5,98.5C 151.5,116.5 151.5,134.5 151.5,152.5C 149.167,152.5 146.833,152.5 144.5,152.5C 144.5,144.5 144.5,136.5 144.5,128.5C 144.5,127.5 144.5,126.5 144.5,125.5C 145.493,116.682 145.827,107.682 145.5,98.5 Z"/></g>
<g><path style="opacity:1" fill="#eadc6f" d="M 90.5,128.5 C 95.1667,128.5 99.8333,128.5 104.5,128.5C 104.5,131.167 104.5,133.833 104.5,136.5C 107.167,136.5 109.833,136.5 112.5,136.5C 112.5,138.833 112.5,141.167 112.5,143.5C 102.167,143.5 91.8333,143.5 81.5,143.5C 81.5,141.167 81.5,138.833 81.5,136.5C 83.8333,136.5 86.1667,136.5 88.5,136.5C 88.1072,133.487 88.7739,130.82 90.5,128.5 Z"/></g>
<g><path style="opacity:1" fill="#52350d" d="M 127.5,106.5 C 128.487,111.305 128.821,116.305 128.5,121.5C 128.5,121.833 128.5,122.167 128.5,122.5C 128.5,129.833 128.5,137.167 128.5,144.5C 125.833,144.5 123.167,144.5 120.5,144.5C 120.5,139.167 120.5,133.833 120.5,128.5C 120.833,128.5 121.167,128.5 121.5,128.5C 121.5,133.5 121.5,138.5 121.5,143.5C 123.5,143.5 125.5,143.5 127.5,143.5C 127.5,138.5 127.5,133.5 127.5,128.5C 127.5,128.167 127.5,127.833 127.5,127.5C 127.5,125.833 127.5,124.167 127.5,122.5C 127.5,117.167 127.5,111.833 127.5,106.5 Z"/></g>
<g><path style="opacity:1" fill="#2b1c03" d="M 121.5,128.5 C 123.5,128.5 125.5,128.5 127.5,128.5C 127.5,133.5 127.5,138.5 127.5,143.5C 125.5,143.5 123.5,143.5 121.5,143.5C 121.5,138.5 121.5,133.5 121.5,128.5 Z"/></g>
<g><path style="opacity:1" fill="#7ec0c5" d="M 144.5,128.5 C 144.5,136.5 144.5,144.5 144.5,152.5C 142.167,152.5 139.833,152.5 137.5,152.5C 137.167,152.5 136.833,152.5 136.5,152.5C 136.5,149.833 136.5,147.167 136.5,144.5C 136.833,144.5 137.167,144.5 137.5,144.5C 137.5,146.833 137.5,149.167 137.5,151.5C 139.5,151.5 141.5,151.5 143.5,151.5C 143.5,146.5 143.5,141.5 143.5,136.5C 141.5,136.5 139.5,136.5 137.5,136.5C 137.702,134.05 137.369,131.717 136.5,129.5C 138.948,128.527 141.615,128.194 144.5,128.5 Z"/></g>
<g><path style="opacity:1" fill="#b3e2da" d="M 136.5,129.5 C 137.369,131.717 137.702,134.05 137.5,136.5C 137.5,139.167 137.5,141.833 137.5,144.5C 137.167,144.5 136.833,144.5 136.5,144.5C 136.167,144.5 135.833,144.5 135.5,144.5C 135.179,139.305 135.513,134.305 136.5,129.5 Z"/></g>
<g><path style="opacity:1" fill="#83e9f5" d="M 137.5,136.5 C 139.5,136.5 141.5,136.5 143.5,136.5C 143.5,141.5 143.5,146.5 143.5,151.5C 141.5,151.5 139.5,151.5 137.5,151.5C 137.5,149.167 137.5,146.833 137.5,144.5C 137.5,141.833 137.5,139.167 137.5,136.5 Z"/></g>
<g><path style="opacity:1" fill="#2b210e" d="M 135.5,144.5 C 135.833,144.5 136.167,144.5 136.5,144.5C 136.5,147.167 136.5,149.833 136.5,152.5C 136.167,152.5 135.833,152.5 135.5,152.5C 133.735,151.539 131.735,151.205 129.5,151.5C 129.5,149.5 129.5,147.5 129.5,145.5C 131.735,145.795 133.735,145.461 135.5,144.5 Z"/></g>
<g><path style="opacity:1" fill="#56300f" d="M 128.5,144.5 C 130.833,144.5 133.167,144.5 135.5,144.5C 133.735,145.461 131.735,145.795 129.5,145.5C 129.5,147.5 129.5,149.5 129.5,151.5C 131.735,151.205 133.735,151.539 135.5,152.5C 133.167,152.5 130.833,152.5 128.5,152.5C 128.5,149.833 128.5,147.167 128.5,144.5 Z"/></g>
<g><path style="opacity:1" fill="#b7662b" d="M 80.5,144.5 C 80.8333,144.5 81.1667,144.5 81.5,144.5C 94.5,144.5 107.5,144.5 120.5,144.5C 123.167,144.5 125.833,144.5 128.5,144.5C 128.5,147.167 128.5,149.833 128.5,152.5C 123.5,152.5 118.5,152.5 113.5,152.5C 113.167,152.5 112.833,152.5 112.5,152.5C 107.5,152.5 102.5,152.5 97.5,152.5C 97.1667,152.5 96.8333,152.5 96.5,152.5C 96.5,152.167 96.5,151.833 96.5,151.5C 106.5,151.5 116.5,151.5 126.5,151.5C 126.5,149.5 126.5,147.5 126.5,145.5C 116.5,145.5 106.5,145.5 96.5,145.5C 91.5,145.5 86.5,145.5 81.5,145.5C 81.5,147.833 81.5,150.167 81.5,152.5C 81.1667,152.5 80.8333,152.5 80.5,152.5C 80.5,149.833 80.5,147.167 80.5,144.5 Z"/></g>
<g><path style="opacity:1" fill="#e36c29" d="M 96.5,145.5 C 97.6414,147.451 97.6414,149.451 96.5,151.5C 96.5,151.833 96.5,152.167 96.5,152.5C 91.5,152.5 86.5,152.5 81.5,152.5C 81.5,150.167 81.5,147.833 81.5,145.5C 86.5,145.5 91.5,145.5 96.5,145.5 Z"/></g>
<g><path style="opacity:1" fill="#c75925" d="M 96.5,145.5 C 106.5,145.5 116.5,145.5 126.5,145.5C 126.5,147.5 126.5,149.5 126.5,151.5C 116.5,151.5 106.5,151.5 96.5,151.5C 97.6414,149.451 97.6414,147.451 96.5,145.5 Z"/></g>
<g><path style="opacity:0.494" fill="#758577" d="M 72.5,128.5 C 73.4968,146.659 73.8302,164.992 73.5,183.5C 75.5,183.5 77.5,183.5 79.5,183.5C 79.8333,183.5 80.1667,183.5 80.5,183.5C 80.5,183.833 80.5,184.167 80.5,184.5C 77.3019,185.036 74.6353,184.369 72.5,182.5C 72.5,165.5 72.5,148.5 72.5,131.5C 72.5,130.5 72.5,129.5 72.5,128.5 Z"/></g>
<g><path style="opacity:1" fill="#2f1a02" d="M 73.5,114.5 C 75.8333,114.5 78.1667,114.5 80.5,114.5C 80.5,119.167 80.5,123.833 80.5,128.5C 80.5,133.833 80.5,139.167 80.5,144.5C 80.5,147.167 80.5,149.833 80.5,152.5C 80.5,157.833 80.5,163.167 80.5,168.5C 80.5,173.5 80.5,178.5 80.5,183.5C 80.1667,183.5 79.8333,183.5 79.5,183.5C 79.7712,178.087 79.2712,172.754 78,167.5C 77.586,167.957 77.086,168.291 76.5,168.5C 75.5017,159.19 75.1684,149.857 75.5,140.5C 76.5,140.5 77.5,140.5 78.5,140.5C 79.03,132.21 79.03,123.877 78.5,115.5C 77.1667,115.5 75.8333,115.5 74.5,115.5C 74.5,118.167 74.5,120.833 74.5,123.5C 72.1432,123.337 69.8098,123.503 67.5,124C 66.9152,125.302 66.2485,126.469 65.5,127.5C 65.5,125.833 65.5,124.167 65.5,122.5C 68.1667,122.5 70.8333,122.5 73.5,122.5C 73.5,119.833 73.5,117.167 73.5,114.5 Z"/></g>
<g><path style="opacity:1" fill="#411b01" d="M 97.5,152.5 C 102.5,152.5 107.5,152.5 112.5,152.5C 112.5,152.833 112.5,153.167 112.5,153.5C 107.595,154.445 102.595,154.779 97.5,154.5C 97.5,153.833 97.5,153.167 97.5,152.5 Z"/></g>
<g><path style="opacity:0.145" fill="#d2e5dc" d="M 151.5,97.5 C 152.497,115.993 152.83,134.659 152.5,153.5C 150.167,153.5 147.833,153.5 145.5,153.5C 145.5,163.167 145.5,172.833 145.5,182.5C 145.5,183.167 145.167,183.5 144.5,183.5C 144.5,173.167 144.5,162.833 144.5,152.5C 146.833,152.5 149.167,152.5 151.5,152.5C 151.5,134.5 151.5,116.5 151.5,98.5C 151.5,98.1667 151.5,97.8333 151.5,97.5 Z"/></g>
<g><path style="opacity:1" fill="#71371a" d="M 41.5,129.5 C 41.8333,129.5 42.1667,129.5 42.5,129.5C 42.5,131.833 42.5,134.167 42.5,136.5C 41.5111,141.975 41.1778,147.642 41.5,153.5C 41.5,154.5 41.5,155.5 41.5,156.5C 43.5,156.5 45.5,156.5 47.5,156.5C 47.3161,163.413 48.4828,170.08 51,176.5C 51.3589,173.456 52.0255,173.122 53,175.5C 53.414,175.043 53.914,174.709 54.5,174.5C 55.496,179.462 56.1627,184.462 56.5,189.5C 52.5,189.5 48.5,189.5 44.5,189.5C 44.185,181.58 44.5183,173.747 45.5,166C 42.5219,165.304 39.5219,164.804 36.5,164.5C 36.5,160.5 36.5,156.5 36.5,152.5C 36.1667,152.5 35.8333,152.5 35.5,152.5C 35.5,144.833 35.5,137.167 35.5,129.5C 37.5,129.5 39.5,129.5 41.5,129.5 Z"/></g>
<g><path style="opacity:1" fill="#863d18" d="M 36.5,152.5 C 36.5,145.167 36.5,137.833 36.5,130.5C 38.9484,130.01 40.615,130.843 41.5,133C 40.5582,139.453 40.2249,145.953 40.5,152.5C 39.1667,152.5 37.8333,152.5 36.5,152.5 Z"/></g>
<g><path style="opacity:1" fill="#d9b65d" d="M 80.5,152.5 C 80.8333,152.5 81.1667,152.5 81.5,152.5C 86.5,152.5 91.5,152.5 96.5,152.5C 96.5,157.833 96.5,163.167 96.5,168.5C 96.1667,168.5 95.8333,168.5 95.5,168.5C 90.8333,168.5 86.1667,168.5 81.5,168.5C 81.1667,168.5 80.8333,168.5 80.5,168.5C 80.5,163.167 80.5,157.833 80.5,152.5 Z"/></g>
<g><path style="opacity:1" fill="#282006" d="M 79.5,183.5 C 77.5,183.5 75.5,183.5 73.5,183.5C 73.8302,164.992 73.4968,146.659 72.5,128.5C 70.1667,128.5 67.8333,128.5 65.5,128.5C 65.5,128.167 65.5,127.833 65.5,127.5C 66.2485,126.469 66.9152,125.302 67.5,124C 69.8098,123.503 72.1432,123.337 74.5,123.5C 74.5,120.833 74.5,118.167 74.5,115.5C 75.8333,115.5 77.1667,115.5 78.5,115.5C 79.03,123.877 79.03,132.21 78.5,140.5C 77.5,140.5 76.5,140.5 75.5,140.5C 75.1684,149.857 75.5017,159.19 76.5,168.5C 77.086,168.291 77.586,167.957 78,167.5C 79.2712,172.754 79.7712,178.087 79.5,183.5 Z"/></g>
<g><path style="opacity:1" fill="#bcb06f" d="M 112.5,152.5 C 112.833,152.5 113.167,152.5 113.5,152.5C 113.5,152.833 113.5,153.167 113.5,153.5C 113.5,155.5 113.5,157.5 113.5,159.5C 115.833,159.5 118.167,159.5 120.5,159.5C 120.5,159.833 120.5,160.167 120.5,160.5C 118.167,160.5 115.833,160.5 113.5,160.5C 113.167,160.5 112.833,160.5 112.5,160.5C 112.5,158.167 112.5,155.833 112.5,153.5C 112.5,153.167 112.5,152.833 112.5,152.5 Z"/></g>
<g><path style="opacity:1" fill="#eadc75" d="M 113.5,153.5 C 115.833,153.5 118.167,153.5 120.5,153.5C 120.5,155.5 120.5,157.5 120.5,159.5C 118.167,159.5 115.833,159.5 113.5,159.5C 113.5,157.5 113.5,155.5 113.5,153.5 Z"/></g>
<g><path style="opacity:1" fill="#dfba5d" d="M 113.5,153.5 C 113.5,153.167 113.5,152.833 113.5,152.5C 118.5,152.5 123.5,152.5 128.5,152.5C 130.607,153.468 132.941,153.802 135.5,153.5C 135.5,158.167 135.5,162.833 135.5,167.5C 132.941,167.198 130.607,167.532 128.5,168.5C 126.167,168.5 123.833,168.5 121.5,168.5C 121.167,168.5 120.833,168.5 120.5,168.5C 120.5,165.833 120.5,163.167 120.5,160.5C 120.5,160.167 120.5,159.833 120.5,159.5C 120.5,157.5 120.5,155.5 120.5,153.5C 118.167,153.5 115.833,153.5 113.5,153.5 Z"/></g>
<g><path style="opacity:1" fill="#322005" d="M 136.5,152.5 C 136.833,152.5 137.167,152.5 137.5,152.5C 137.5,152.833 137.5,153.167 137.5,153.5C 137.316,156.321 138.649,157.988 141.5,158.5C 142.664,165.476 142.831,172.476 142,179.5C 139.841,180.155 138.341,181.488 137.5,183.5C 137.167,183.5 136.833,183.5 136.5,183.5C 136.5,178.5 136.5,173.5 136.5,168.5C 136.5,163.167 136.5,157.833 136.5,152.5 Z"/></g>
<g><path style="opacity:0.678" fill="#7f6c55" d="M 42.5,136.5 C 42.5,141.833 42.5,147.167 42.5,152.5C 45.1667,152.5 47.8333,152.5 50.5,152.5C 50.5,157.833 50.5,163.167 50.5,168.5C 49.5128,163.695 49.1795,158.695 49.5,153.5C 46.8333,153.5 44.1667,153.5 41.5,153.5C 41.1778,147.642 41.5111,141.975 42.5,136.5 Z"/></g>
<g><path style="opacity:0.145" fill="#d5dfd1" d="M 42.5,136.5 C 49.8333,136.5 57.1667,136.5 64.5,136.5C 64.8333,136.5 65.1667,136.5 65.5,136.5C 58.3524,137.492 51.0191,137.825 43.5,137.5C 43.6187,142.212 43.6187,146.712 43.5,151C 46.146,151.497 48.8127,151.664 51.5,151.5C 51.3341,156.511 51.5007,161.511 52,166.5C 54.3806,167.435 56.8806,167.768 59.5,167.5C 59.5,172.5 59.5,177.5 59.5,182.5C 59.5,183.167 59.5,183.833 59.5,184.5C 59.7947,186.735 59.4614,188.735 58.5,190.5C 58.825,182.981 58.4916,175.648 57.5,168.5C 55.1667,168.5 52.8333,168.5 50.5,168.5C 50.5,163.167 50.5,157.833 50.5,152.5C 47.8333,152.5 45.1667,152.5 42.5,152.5C 42.5,147.167 42.5,141.833 42.5,136.5 Z"/></g>
<g><path style="opacity:1" fill="#c19e5c" d="M 128.5,152.5 C 130.833,152.5 133.167,152.5 135.5,152.5C 135.833,152.5 136.167,152.5 136.5,152.5C 136.5,157.833 136.5,163.167 136.5,168.5C 136.167,168.5 135.833,168.5 135.5,168.5C 133.167,168.5 130.833,168.5 128.5,168.5C 130.607,167.532 132.941,167.198 135.5,167.5C 135.5,162.833 135.5,158.167 135.5,153.5C 132.941,153.802 130.607,153.468 128.5,152.5 Z"/></g>
<g><path style="opacity:0.853" fill="#323a2c" d="M 137.5,153.5 C 137.5,153.167 137.5,152.833 137.5,152.5C 139.833,152.5 142.167,152.5 144.5,152.5C 144.5,162.833 144.5,173.167 144.5,183.5C 144.167,183.5 143.833,183.5 143.5,183.5C 143.5,173.5 143.5,163.5 143.5,153.5C 141.5,153.5 139.5,153.5 137.5,153.5 Z"/></g>
<g><path style="opacity:1" fill="#2b1d06" d="M 112.5,153.5 C 112.5,155.833 112.5,158.167 112.5,160.5C 110.167,160.5 107.833,160.5 105.5,160.5C 105.167,160.5 104.833,160.5 104.5,160.5C 103.508,167.982 103.175,175.648 103.5,183.5C 101.5,183.5 99.5,183.5 97.5,183.5C 97.5,173.833 97.5,164.167 97.5,154.5C 102.595,154.779 107.595,154.445 112.5,153.5 Z"/></g>
<g><path style="opacity:0.314" fill="#a5b4aa" d="M 104.5,160.5 C 104.833,160.5 105.167,160.5 105.5,160.5C 105.5,161.5 105.5,162.5 105.5,163.5C 105.905,169.927 105.905,176.26 105.5,182.5C 105.672,183.492 105.338,184.158 104.5,184.5C 104.5,176.5 104.5,168.5 104.5,160.5 Z"/></g>
<g><path style="opacity:1" fill="#2e1f04" d="M 113.5,160.5 C 115.833,160.5 118.167,160.5 120.5,160.5C 120.5,163.167 120.5,165.833 120.5,168.5C 120.5,173.5 120.5,178.5 120.5,183.5C 118.167,183.5 115.833,183.5 113.5,183.5C 113.5,175.833 113.5,168.167 113.5,160.5 Z"/></g>
<g><path style="opacity:1" fill="#eddd71" d="M 121.5,160.5 C 123.833,160.5 126.167,160.5 128.5,160.5C 129.833,166.5 127.5,168.833 121.5,167.5C 121.5,165.167 121.5,162.833 121.5,160.5 Z"/></g>
<g><path style="opacity:1" fill="#ebdb74" d="M 81.5,153.5 C 83.7463,153.936 85.9129,154.603 88,155.5C 88.4988,159.486 88.6655,163.486 88.5,167.5C 86.1667,167.5 83.8333,167.5 81.5,167.5C 81.5,162.833 81.5,158.167 81.5,153.5 Z"/></g>
<g><path style="opacity:0.731" fill="#4c5847" d="M 112.5,160.5 C 112.833,160.5 113.167,160.5 113.5,160.5C 113.5,168.167 113.5,175.833 113.5,183.5C 115.833,183.5 118.167,183.5 120.5,183.5C 120.5,183.833 120.5,184.167 120.5,184.5C 117.833,184.5 115.167,184.5 112.5,184.5C 112.5,176.5 112.5,168.5 112.5,160.5 Z"/></g>
<g><path style="opacity:0.937" fill="#2c3122" d="M 104.5,160.5 C 104.5,168.5 104.5,176.5 104.5,184.5C 102.167,184.5 99.8333,184.5 97.5,184.5C 97.5,184.167 97.5,183.833 97.5,183.5C 99.5,183.5 101.5,183.5 103.5,183.5C 103.175,175.648 103.508,167.982 104.5,160.5 Z"/></g>
<g><path style="opacity:0.996" fill="#221d09" d="M 137.5,153.5 C 139.5,153.5 141.5,153.5 143.5,153.5C 143.5,163.5 143.5,173.5 143.5,183.5C 141.5,183.5 139.5,183.5 137.5,183.5C 138.341,181.488 139.841,180.155 142,179.5C 142.831,172.476 142.664,165.476 141.5,158.5C 138.649,157.988 137.316,156.321 137.5,153.5 Z"/></g>
<g><path style="opacity:0.996" fill="#64371c" d="M 35.5,152.5 C 35.8333,152.5 36.1667,152.5 36.5,152.5C 36.5,156.5 36.5,160.5 36.5,164.5C 39.5219,164.804 42.5219,165.304 45.5,166C 44.5183,173.747 44.185,181.58 44.5,189.5C 48.5,189.5 52.5,189.5 56.5,189.5C 56.1627,184.462 55.496,179.462 54.5,174.5C 53.914,174.709 53.414,175.043 53,175.5C 52.0255,173.122 51.3589,173.456 51,176.5C 48.4828,170.08 47.3161,163.413 47.5,156.5C 45.5,156.5 43.5,156.5 41.5,156.5C 41.5,155.5 41.5,154.5 41.5,153.5C 44.1667,153.5 46.8333,153.5 49.5,153.5C 49.1795,158.695 49.5128,163.695 50.5,168.5C 52.8333,168.5 55.1667,168.5 57.5,168.5C 57.5,175.833 57.5,183.167 57.5,190.5C 52.8333,190.5 48.1667,190.5 43.5,190.5C 43.5,182.833 43.5,175.167 43.5,167.5C 40.8333,167.5 38.1667,167.5 35.5,167.5C 35.5,162.5 35.5,157.5 35.5,152.5 Z"/></g>
<g><path style="opacity:0.885" fill="#654c34" d="M 34.5,128.5 C 36.8333,128.5 39.1667,128.5 41.5,128.5C 41.5,128.833 41.5,129.167 41.5,129.5C 39.5,129.5 37.5,129.5 35.5,129.5C 35.5,137.167 35.5,144.833 35.5,152.5C 35.5,157.5 35.5,162.5 35.5,167.5C 38.1667,167.5 40.8333,167.5 43.5,167.5C 43.5,175.167 43.5,182.833 43.5,190.5C 48.1667,190.5 52.8333,190.5 57.5,190.5C 52.6946,191.487 47.6946,191.821 42.5,191.5C 42.5,183.833 42.5,176.167 42.5,168.5C 39.8333,168.5 37.1667,168.5 34.5,168.5C 34.5,155.167 34.5,141.833 34.5,128.5 Z"/></g>
<g><path style="opacity:0.027" fill="#e7fcfb" d="M 105.5,160.5 C 107.833,160.5 110.167,160.5 112.5,160.5C 112.5,168.5 112.5,176.5 112.5,184.5C 110.973,184.573 109.973,183.906 109.5,182.5C 111.459,176.25 112.126,169.584 111.5,162.5C 109.379,162.325 107.379,162.659 105.5,163.5C 105.5,162.5 105.5,161.5 105.5,160.5 Z"/></g>
<g><path style="opacity:1" fill="#885032" d="M 120.5,168.5 C 120.833,168.5 121.167,168.5 121.5,168.5C 121.5,173.5 121.5,178.5 121.5,183.5C 125.867,183.013 130.201,182.347 134.5,181.5C 134.372,177.119 134.705,172.785 135.5,168.5C 135.833,168.5 136.167,168.5 136.5,168.5C 136.5,173.5 136.5,178.5 136.5,183.5C 135.833,183.5 135.5,183.833 135.5,184.5C 130.833,184.5 126.167,184.5 121.5,184.5C 121.167,184.5 120.833,184.5 120.5,184.5C 120.5,184.167 120.5,183.833 120.5,183.5C 120.5,178.5 120.5,173.5 120.5,168.5 Z"/></g>
<g><path style="opacity:1" fill="#9b5333" d="M 121.5,168.5 C 123.833,168.5 126.167,168.5 128.5,168.5C 130.833,168.5 133.167,168.5 135.5,168.5C 134.705,172.785 134.372,177.119 134.5,181.5C 130.201,182.347 125.867,183.013 121.5,183.5C 121.5,178.5 121.5,173.5 121.5,168.5 Z"/></g>
<g><path style="opacity:1" fill="#6e4423" d="M 96.5,152.5 C 96.8333,152.5 97.1667,152.5 97.5,152.5C 97.5,153.167 97.5,153.833 97.5,154.5C 97.5,164.167 97.5,173.833 97.5,183.5C 97.5,183.833 97.5,184.167 97.5,184.5C 97.1667,184.5 96.8333,184.5 96.5,184.5C 91.5,184.5 86.5,184.5 81.5,184.5C 81.1667,184.5 80.8333,184.5 80.5,184.5C 80.5,184.167 80.5,183.833 80.5,183.5C 80.5,178.5 80.5,173.5 80.5,168.5C 80.8333,168.5 81.1667,168.5 81.5,168.5C 81.5,173.5 81.5,178.5 81.5,183.5C 83.8333,183.5 86.1667,183.5 88.5,183.5C 91.1667,183.5 93.8333,183.5 96.5,183.5C 96.5,178.5 96.5,173.5 96.5,168.5C 96.5,163.167 96.5,157.833 96.5,152.5 Z"/></g>
<g><path style="opacity:1" fill="#a15d3b" d="M 81.5,168.5 C 86.1667,168.5 90.8333,168.5 95.5,168.5C 93.3926,169.468 91.0593,169.802 88.5,169.5C 88.5,174.167 88.5,178.833 88.5,183.5C 86.1667,183.5 83.8333,183.5 81.5,183.5C 81.5,178.5 81.5,173.5 81.5,168.5 Z"/></g>
<g><path style="opacity:1" fill="#954d2e" d="M 95.5,168.5 C 95.8333,168.5 96.1667,168.5 96.5,168.5C 96.5,173.5 96.5,178.5 96.5,183.5C 93.8333,183.5 91.1667,183.5 88.5,183.5C 88.5,178.833 88.5,174.167 88.5,169.5C 91.0593,169.802 93.3926,169.468 95.5,168.5 Z"/></g>
<g><path style="opacity:0.349" fill="#c9fbf8" d="M 145.5,182.5 C 171.169,182.333 196.835,182.5 222.5,183C 223.044,183.717 223.711,184.217 224.5,184.5C 224.5,186.833 224.5,189.167 224.5,191.5C 223.833,191.833 223.167,192.167 222.5,192.5C 222.5,189.833 222.5,187.167 222.5,184.5C 196.5,184.5 170.5,184.5 144.5,184.5C 144.5,184.167 144.5,183.833 144.5,183.5C 145.167,183.5 145.5,183.167 145.5,182.5 Z"/></g>
<g><path style="opacity:1" fill="#9deae4" d="M 199.5,192.5 C 198.532,194.607 198.198,196.941 198.5,199.5C 173.167,199.5 147.833,199.5 122.5,199.5C 123.968,198.221 124.635,196.554 124.5,194.5C 128.514,194.666 132.514,194.499 136.5,194C 139.125,191.804 140.125,188.97 139.5,185.5C 166.833,185.5 194.167,185.5 221.5,185.5C 221.5,187.5 221.5,189.5 221.5,191.5C 213.981,191.175 206.648,191.508 199.5,192.5 Z"/></g>
<g><path style="opacity:1" fill="#9feae2" d="M 41.5,184.5 C 41.1936,187.385 41.5269,190.052 42.5,192.5C 48.2709,193.113 53.6042,192.446 58.5,190.5C 59.4614,188.735 59.7947,186.735 59.5,184.5C 61.9794,185.974 64.6461,186.974 67.5,187.5C 68.4058,190.436 69.0725,193.436 69.5,196.5C 68.5,196.5 67.5,196.5 66.5,196.5C 66.7778,194.654 66.1112,193.32 64.5,192.5C 61.7741,194.882 59.4408,196.882 57.5,198.5C 54.9365,198.263 54.9365,197.763 57.5,197C 53.2671,195.734 48.9338,195.734 44.5,197C 43.1667,197.667 43.1667,198.333 44.5,199C 38.5092,199.499 32.5092,199.666 26.5,199.5C 26.7683,196.881 26.435,194.381 25.5,192C 20.8452,191.501 16.1785,191.334 11.5,191.5C 11.5,189.167 11.5,186.833 11.5,184.5C 21.5,184.5 31.5,184.5 41.5,184.5 Z"/></g>
<g><path style="opacity:1" fill="#72715f" d="M 57.5,168.5 C 58.4916,175.648 58.825,182.981 58.5,190.5C 53.6042,192.446 48.2709,193.113 42.5,192.5C 42.5,192.167 42.5,191.833 42.5,191.5C 47.6946,191.821 52.6946,191.487 57.5,190.5C 57.5,183.167 57.5,175.833 57.5,168.5 Z"/></g>
<g><path style="opacity:1" fill="#a5ebe6" d="M 59.5,182.5 C 63.8333,182.5 68.1667,182.5 72.5,182.5C 74.6353,184.369 77.3019,185.036 80.5,184.5C 80.5,187.167 80.5,189.833 80.5,192.5C 86.1667,192.5 91.8333,192.5 97.5,192.5C 97.5,189.833 97.5,187.167 97.5,184.5C 99.8333,184.5 102.167,184.5 104.5,184.5C 105.338,184.158 105.672,183.492 105.5,182.5C 106.833,182.5 108.167,182.5 109.5,182.5C 109.973,183.906 110.973,184.573 112.5,184.5C 115.167,184.5 117.833,184.5 120.5,184.5C 120.5,186.833 120.5,189.167 120.5,191.5C 119.539,189.735 119.205,187.735 119.5,185.5C 112.833,185.5 106.167,185.5 99.5,185.5C 99.6633,187.857 99.4966,190.19 99,192.5C 96.955,193.887 94.7883,195.054 92.5,196C 102.35,198.314 112.35,199.481 122.5,199.5C 147.833,199.5 173.167,199.5 198.5,199.5C 141.167,200.833 83.8333,200.833 26.5,199.5C 32.5092,199.666 38.5092,199.499 44.5,199C 43.1667,198.333 43.1667,197.667 44.5,197C 48.9338,195.734 53.2671,195.734 57.5,197C 54.9365,197.763 54.9365,198.263 57.5,198.5C 59.4408,196.882 61.7741,194.882 64.5,192.5C 66.1112,193.32 66.7778,194.654 66.5,196.5C 67.5,196.5 68.5,196.5 69.5,196.5C 69.0725,193.436 68.4058,190.436 67.5,187.5C 64.6461,186.974 61.9794,185.974 59.5,184.5C 59.5,183.833 59.5,183.167 59.5,182.5 Z"/></g>
<g><path style="opacity:1" fill="#557362" d="M 80.5,184.5 C 80.8333,184.5 81.1667,184.5 81.5,184.5C 81.5,186.833 81.5,189.167 81.5,191.5C 86.5,191.5 91.5,191.5 96.5,191.5C 96.5,189.167 96.5,186.833 96.5,184.5C 96.8333,184.5 97.1667,184.5 97.5,184.5C 97.5,187.167 97.5,189.833 97.5,192.5C 91.8333,192.5 86.1667,192.5 80.5,192.5C 80.5,189.833 80.5,187.167 80.5,184.5 Z"/></g>
<g><path style="opacity:1" fill="#282108" d="M 81.5,184.5 C 86.5,184.5 91.5,184.5 96.5,184.5C 96.5,186.833 96.5,189.167 96.5,191.5C 91.5,191.5 86.5,191.5 81.5,191.5C 81.5,189.167 81.5,186.833 81.5,184.5 Z"/></g>
<g><path style="opacity:1" fill="#415949" d="M 136.5,183.5 C 136.833,183.5 137.167,183.5 137.5,183.5C 139.5,183.5 141.5,183.5 143.5,183.5C 143.833,183.5 144.167,183.5 144.5,183.5C 144.5,183.833 144.5,184.167 144.5,184.5C 141.833,184.5 139.167,184.5 136.5,184.5C 136.5,187.167 136.5,189.833 136.5,192.5C 130.974,192.821 125.64,192.488 120.5,191.5C 120.5,189.167 120.5,186.833 120.5,184.5C 120.833,184.5 121.167,184.5 121.5,184.5C 121.5,186.833 121.5,189.167 121.5,191.5C 126.167,191.5 130.833,191.5 135.5,191.5C 135.5,189.167 135.5,186.833 135.5,184.5C 135.5,183.833 135.833,183.5 136.5,183.5 Z"/></g>
<g><path style="opacity:1" fill="#2b1f06" d="M 121.5,184.5 C 126.167,184.5 130.833,184.5 135.5,184.5C 135.5,186.833 135.5,189.167 135.5,191.5C 130.833,191.5 126.167,191.5 121.5,191.5C 121.5,189.167 121.5,186.833 121.5,184.5 Z"/></g>
<g><path style="opacity:1" fill="#a1eae4" d="M 144.5,184.5 C 170.5,184.5 196.5,184.5 222.5,184.5C 222.5,187.167 222.5,189.833 222.5,192.5C 214.833,192.5 207.167,192.5 199.5,192.5C 206.648,191.508 213.981,191.175 221.5,191.5C 221.5,189.5 221.5,187.5 221.5,185.5C 194.167,185.5 166.833,185.5 139.5,185.5C 140.125,188.97 139.125,191.804 136.5,194C 132.514,194.499 128.514,194.666 124.5,194.5C 124.635,196.554 123.968,198.221 122.5,199.5C 112.35,199.481 102.35,198.314 92.5,196C 94.7883,195.054 96.955,193.887 99,192.5C 99.4966,190.19 99.6633,187.857 99.5,185.5C 106.167,185.5 112.833,185.5 119.5,185.5C 119.205,187.735 119.539,189.735 120.5,191.5C 125.64,192.488 130.974,192.821 136.5,192.5C 136.5,189.833 136.5,187.167 136.5,184.5C 139.167,184.5 141.833,184.5 144.5,184.5 Z"/></g>
<g><path style="opacity:0.118" fill="#cafcfb" d="M 41.5,181.5 C 41.5,182.5 41.5,183.5 41.5,184.5C 31.5,184.5 21.5,184.5 11.5,184.5C 11.5,186.833 11.5,189.167 11.5,191.5C 16.1785,191.334 20.8452,191.501 25.5,192C 26.435,194.381 26.7683,196.881 26.5,199.5C 83.8333,200.833 141.167,200.833 198.5,199.5C 198.198,196.941 198.532,194.607 199.5,192.5C 207.167,192.5 214.833,192.5 222.5,192.5C 215.352,193.492 208.019,193.825 200.5,193.5C 200.721,196.279 200.388,198.946 199.5,201.5C 141.5,201.5 83.5,201.5 25.5,201.5C 24.7347,198.904 24.4013,196.237 24.5,193.5C 19.4351,193.781 14.4351,193.448 9.5,192.5C 8.25151,189.494 8.25151,186.494 9.5,183.5C 20.2269,182.812 30.8936,182.145 41.5,181.5 Z"/></g>
</svg>
