<?xml version="1.0" encoding="UTF-8"?>
<!DOCTYPE svg PUBLIC "-//W3C//DTD SVG 1.1//EN" "http://www.w3.org/Graphics/SVG/1.1/DTD/svg11.dtd">
<svg xmlns="http://www.w3.org/2000/svg" version="1.1" width="130px" height="195px" style="shape-rendering:geometricPrecision; text-rendering:geometricPrecision; image-rendering:optimizeQuality; fill-rule:evenodd; clip-rule:evenodd" xmlns:xlink="http://www.w3.org/1999/xlink">
<g><path style="opacity:0.626" fill="#626262" d="M 104.5,23.5 C 104.5,23.8333 104.5,24.1667 104.5,24.5C 104.5,26.8333 104.5,29.1667 104.5,31.5C 106.5,31.5 108.5,31.5 110.5,31.5C 110.5,29.1667 110.5,26.8333 110.5,24.5C 111.468,26.6074 111.802,28.9407 111.5,31.5C 114.059,31.1984 116.393,31.5318 118.5,32.5C 116.167,32.5 113.833,32.5 111.5,32.5C 111.5,34.5 111.5,36.5 111.5,38.5C 113.833,38.5 116.167,38.5 118.5,38.5C 118.833,38.5 119.167,38.5 119.5,38.5C 120.833,38.5 122.167,38.5 123.5,38.5C 124.167,38.5 124.833,38.5 125.5,38.5C 125.5,38.8333 125.5,39.1667 125.5,39.5C 123.167,39.5 120.833,39.5 118.5,39.5C 115.833,39.5 113.167,39.5 110.5,39.5C 110.5,39.1667 110.5,38.8333 110.5,38.5C 110.5,36.5 110.5,34.5 110.5,32.5C 108.5,32.5 106.5,32.5 104.5,32.5C 103.833,32.5 103.5,32.1667 103.5,31.5C 103.5,29.1667 103.5,26.8333 103.5,24.5C 103.5,22.1667 103.5,19.8333 103.5,17.5C 101.5,17.5 99.5,17.5 97.5,17.5C 97.5,19.8333 97.5,22.1667 97.5,24.5C 96.5318,22.3926 96.1984,20.0593 96.5,17.5C 96.5,15.1667 96.5,12.8333 96.5,10.5C 94.1667,10.5 91.8333,10.5 89.5,10.5C 72.8333,10.5 56.1667,10.5 39.5,10.5C 37.1667,10.5 34.8333,10.5 32.5,10.5C 32.5,12.8333 32.5,15.1667 32.5,17.5C 32.8016,20.0593 32.4682,22.3926 31.5,24.5C 31.5,22.1667 31.5,19.8333 31.5,17.5C 29.5,17.5 27.5,17.5 25.5,17.5C 25.7678,19.099 25.4345,20.4324 24.5,21.5C 24.0582,20.7688 23.8915,19.7688 24,18.5C 23.3457,19.6956 22.8457,19.6956 22.5,18.5C 25.1934,16.7298 28.1934,16.0632 31.5,16.5C 31.5,14.1667 31.5,11.8333 31.5,9.5C 33.8333,9.5 36.1667,9.5 38.5,9.5C 38.5,7.16667 38.5,4.83333 38.5,2.5C 55.2394,3.14325 71.7394,2.47659 88,0.5C 88.6667,3.16667 89.3333,3.16667 90,0.5C 90.5,1 91,1.5 91.5,2C 90.565,4.3806 90.2317,6.8806 90.5,9.5C 92.8333,9.5 95.1667,9.5 97.5,9.5C 97.5,11.8333 97.5,14.1667 97.5,16.5C 99.8333,16.5 102.167,16.5 104.5,16.5C 104.5,18.8333 104.5,21.1667 104.5,23.5 Z"/></g>
<g><path style="opacity:1" fill="#000000" d="M 39.5,3.5 C 56.1667,3.5 72.8333,3.5 89.5,3.5C 89.5,5.5 89.5,7.5 89.5,9.5C 72.8333,9.5 56.1667,9.5 39.5,9.5C 39.5,7.5 39.5,5.5 39.5,3.5 Z"/></g>
<g><path style="opacity:0.992" fill="#0c0c0c" d="M 39.5,10.5 C 39.5,12.8333 39.5,15.1667 39.5,17.5C 37.1667,17.5 34.8333,17.5 32.5,17.5C 32.5,15.1667 32.5,12.8333 32.5,10.5C 34.8333,10.5 37.1667,10.5 39.5,10.5 Z"/></g>
<g><path style="opacity:0.078" fill="#dadada" d="M 39.5,10.5 C 56.1667,10.5 72.8333,10.5 89.5,10.5C 89.5,12.8333 89.5,15.1667 89.5,17.5C 88.0427,15.7582 86.876,13.7582 86,11.5C 70.9827,11.5457 55.8161,11.5457 40.5,11.5C 40.7947,13.7354 40.4614,15.7354 39.5,17.5C 39.5,15.1667 39.5,12.8333 39.5,10.5 Z"/></g>
<g><path style="opacity:0.989" fill="#090909" d="M 89.5,10.5 C 91.8333,10.5 94.1667,10.5 96.5,10.5C 96.5,12.8333 96.5,15.1667 96.5,17.5C 94.1667,17.5 91.8333,17.5 89.5,17.5C 89.5,15.1667 89.5,12.8333 89.5,10.5 Z"/></g>
<g><path style="opacity:0.995" fill="#080808" d="M 31.5,24.5 C 29.1667,24.5 26.8333,24.5 24.5,24.5C 24.5,24.1667 24.5,23.8333 24.5,23.5C 24.5,22.8333 24.5,22.1667 24.5,21.5C 25.4345,20.4324 25.7678,19.099 25.5,17.5C 27.5,17.5 29.5,17.5 31.5,17.5C 31.5,19.8333 31.5,22.1667 31.5,24.5 Z"/></g>
<g><path style="opacity:0.993" fill="#020202" d="M 103.5,24.5 C 101.5,24.5 99.5,24.5 97.5,24.5C 97.5,22.1667 97.5,19.8333 97.5,17.5C 99.5,17.5 101.5,17.5 103.5,17.5C 103.5,19.8333 103.5,22.1667 103.5,24.5 Z"/></g>
<g><path style="opacity:0.129" fill="#b1b1b1" d="M 89.5,17.5 C 91.8333,17.5 94.1667,17.5 96.5,17.5C 96.1984,20.0593 96.5318,22.3926 97.5,24.5C 99.5,24.5 101.5,24.5 103.5,24.5C 103.5,26.8333 103.5,29.1667 103.5,31.5C 102.906,26.9207 100.24,24.9207 95.5,25.5C 95.5,23.5 95.5,21.5 95.5,19.5C 93.1016,19.7406 91.1016,19.0739 89.5,17.5 Z"/></g>
<g><path style="opacity:0.988" fill="#101010" d="M 24.5,24.5 C 24.5,26.8333 24.5,29.1667 24.5,31.5C 22.1667,31.5 19.8333,31.5 17.5,31.5C 17.5,29.1667 17.5,26.8333 17.5,24.5C 19.8333,24.5 22.1667,24.5 24.5,24.5 Z"/></g>
<g><path style="opacity:0.986" fill="#060606" d="M 104.5,24.5 C 106.5,24.5 108.5,24.5 110.5,24.5C 110.5,26.8333 110.5,29.1667 110.5,31.5C 108.5,31.5 106.5,31.5 104.5,31.5C 104.5,29.1667 104.5,26.8333 104.5,24.5 Z"/></g>
<g><path style="opacity:0.151" fill="#dddddd" d="M 104.5,24.5 C 104.5,24.1667 104.5,23.8333 104.5,23.5C 107.167,23.5 109.833,23.5 112.5,23.5C 112.5,25.8333 112.5,28.1667 112.5,30.5C 114.833,30.5 117.167,30.5 119.5,30.5C 119.5,33.1667 119.5,35.8333 119.5,38.5C 119.167,38.5 118.833,38.5 118.5,38.5C 118.5,36.5 118.5,34.5 118.5,32.5C 116.393,31.5318 114.059,31.1984 111.5,31.5C 111.802,28.9407 111.468,26.6074 110.5,24.5C 108.5,24.5 106.5,24.5 104.5,24.5 Z"/></g>
<g><path style="opacity:0.01" fill="#e5e5e5" d="M 96.5,45.5 C 94.1667,45.5 91.8333,45.5 89.5,45.5C 89.5,43.1667 89.5,40.8333 89.5,38.5C 87.1667,38.5 84.8333,38.5 82.5,38.5C 82.5,36.1667 82.5,33.8333 82.5,31.5C 80.1667,31.5 77.8333,31.5 75.5,31.5C 75.5,41.1667 75.5,50.8333 75.5,60.5C 77.8333,60.5 80.1667,60.5 82.5,60.5C 82.5,62.8333 82.5,65.1667 82.5,67.5C 82.5,67.8333 82.5,68.1667 82.5,68.5C 80.6556,67.0852 79.9889,65.4185 80.5,63.5C 78.3788,61.4458 76.7121,61.4458 75.5,63.5C 74.365,62.5255 73.365,61.3588 72.5,60C 73.7397,51.0799 73.7397,41.9132 72.5,32.5C 72.9767,31.5224 73.6433,30.6891 74.5,30C 76.7158,29.9589 78.8825,29.7922 81,29.5C 81.7504,30.1258 82.5838,30.6258 83.5,31C 83.5,32.3333 83.5,33.6667 83.5,35C 84.9308,35.4652 86.0975,36.2986 87,37.5C 88.4936,36.2528 89.9936,36.2528 91.5,37.5C 90.9984,38.7164 90.6651,39.8831 90.5,41C 91.1258,41.7504 91.6258,42.5838 92,43.5C 93.6536,43.2063 95.1536,43.873 96.5,45.5 Z"/></g>
<g><path style="opacity:0.989" fill="#0d0d0d" d="M 17.5,31.5 C 17.5,33.8333 17.5,36.1667 17.5,38.5C 15.1667,38.5 12.8333,38.5 10.5,38.5C 10.5,36.1667 10.5,33.8333 10.5,31.5C 12.8333,31.5 15.1667,31.5 17.5,31.5 Z"/></g>
<g><path style="opacity:0.998" fill="#070707" d="M 53.5,60.5 C 51.1667,60.5 48.8333,60.5 46.5,60.5C 46.5,55.8333 46.5,51.1667 46.5,46.5C 44.1667,46.5 41.8333,46.5 39.5,46.5C 39.5,46.1667 39.5,45.8333 39.5,45.5C 39.5,43.1667 39.5,40.8333 39.5,38.5C 41.8333,38.5 44.1667,38.5 46.5,38.5C 46.5,36.1667 46.5,33.8333 46.5,31.5C 48.8333,31.5 51.1667,31.5 53.5,31.5C 53.5,41.1667 53.5,50.8333 53.5,60.5 Z"/></g>
<g><path style="opacity:0.998" fill="#070707" d="M 89.5,45.5 C 89.5,45.8333 89.5,46.1667 89.5,46.5C 87.1667,46.5 84.8333,46.5 82.5,46.5C 82.5,51.1667 82.5,55.8333 82.5,60.5C 80.1667,60.5 77.8333,60.5 75.5,60.5C 75.5,50.8333 75.5,41.1667 75.5,31.5C 77.8333,31.5 80.1667,31.5 82.5,31.5C 82.5,33.8333 82.5,36.1667 82.5,38.5C 84.8333,38.5 87.1667,38.5 89.5,38.5C 89.5,40.8333 89.5,43.1667 89.5,45.5 Z"/></g>
<g><path style="opacity:0.989" fill="#060606" d="M 118.5,32.5 C 118.5,34.5 118.5,36.5 118.5,38.5C 116.167,38.5 113.833,38.5 111.5,38.5C 111.5,36.5 111.5,34.5 111.5,32.5C 113.833,32.5 116.167,32.5 118.5,32.5 Z"/></g>
<g><path style="opacity:0.143" fill="#e0e0e0" d="M 24.5,23.5 C 24.5,23.8333 24.5,24.1667 24.5,24.5C 22.1667,24.5 19.8333,24.5 17.5,24.5C 17.5,26.8333 17.5,29.1667 17.5,31.5C 15.1667,31.5 12.8333,31.5 10.5,31.5C 10.5,33.8333 10.5,36.1667 10.5,38.5C 10.1667,38.5 9.83333,38.5 9.5,38.5C 8.94105,35.9424 8.94105,33.2758 9.5,30.5C 11.8333,30.5 14.1667,30.5 16.5,30.5C 16.5,28.1667 16.5,25.8333 16.5,23.5C 19.3093,23.043 21.976,23.043 24.5,23.5 Z"/></g>
<g><path style="opacity:0.004" fill="#e5e5e5" d="M 104.5,32.5 C 106.5,32.5 108.5,32.5 110.5,32.5C 110.5,34.5 110.5,36.5 110.5,38.5C 109.549,37.0813 109.216,35.4147 109.5,33.5C 107.585,33.7845 105.919,33.4511 104.5,32.5 Z"/></g>
<g><path style="opacity:0.005" fill="#fefffe" d="M 125.5,38.5 C 124.833,38.5 124.167,38.5 123.5,38.5C 123.843,36.7748 124.843,36.2748 126.5,37C 125.944,37.3826 125.611,37.8826 125.5,38.5 Z"/></g>
<g><path style="opacity:0.02" fill="#fefffe" d="M 2.5,38.5 C 1.83333,37.1667 1.83333,37.1667 2.5,38.5 Z"/></g>
<g><path style="opacity:0.999" fill="#020202" d="M 3.5,38.5 C 5.5,38.5 7.5,38.5 9.5,38.5C 9.83333,38.5 10.1667,38.5 10.5,38.5C 10.5,79.5 10.5,120.5 10.5,161.5C 12.8333,161.5 15.1667,161.5 17.5,161.5C 17.5,163.833 17.5,166.167 17.5,168.5C 12.8333,168.5 8.16667,168.5 3.5,168.5C 3.5,125.167 3.5,81.8333 3.5,38.5 Z"/></g>
<g><path style="opacity:0.999" fill="#010101" d="M 118.5,39.5 C 120.833,39.5 123.167,39.5 125.5,39.5C 125.5,82.5 125.5,125.5 125.5,168.5C 120.833,168.5 116.167,168.5 111.5,168.5C 111.5,166.167 111.5,163.833 111.5,161.5C 113.833,161.5 116.167,161.5 118.5,161.5C 118.5,120.833 118.5,80.1667 118.5,39.5 Z"/></g>
<g><path style="opacity:0.196" fill="#cfcfcf" d="M 2.5,38.5 C 2.83333,38.5 3.16667,38.5 3.5,38.5C 3.5,81.8333 3.5,125.167 3.5,168.5C 8.16667,168.5 12.8333,168.5 17.5,168.5C 17.1984,171.059 17.5318,173.393 18.5,175.5C 20.5,175.5 22.5,175.5 24.5,175.5C 24.5,175.833 24.5,176.167 24.5,176.5C 21.8333,176.5 19.1667,176.5 16.5,176.5C 16.8957,173.956 16.229,171.789 14.5,170C 10.5138,169.501 6.51383,169.334 2.5,169.5C 2.5,125.833 2.5,82.1667 2.5,38.5 Z"/></g>
<g><path style="opacity:0.011" fill="#d8d8d8" d="M 54.5,56.5 C 54.7678,58.099 54.4345,59.4324 53.5,60.5C 53.5,50.8333 53.5,41.1667 53.5,31.5C 51.1667,31.5 48.8333,31.5 46.5,31.5C 46.5,33.8333 46.5,36.1667 46.5,38.5C 44.1667,38.5 41.8333,38.5 39.5,38.5C 39.5,40.8333 39.5,43.1667 39.5,45.5C 36.3019,44.9644 33.6353,45.631 31.5,47.5C 30.6236,47.6309 29.9569,47.2975 29.5,46.5C 30.1449,45.354 30.9783,44.354 32,43.5C 34.0408,44.4231 36.2075,44.7564 38.5,44.5C 38.5,42.1667 38.5,39.8333 38.5,37.5C 44.5,38.8333 46.8333,36.5 45.5,30.5C 48.6163,30.2886 51.4497,29.9553 54,29.5C 54.9246,30.0465 55.7579,30.7132 56.5,31.5C 55.8423,35.0877 55.1756,38.9211 54.5,43C 55.5588,47.5693 55.5588,52.0693 54.5,56.5 Z"/></g>
<g><path style="opacity:0.2" fill="#d0d0d0" d="M 125.5,38.5 C 126.169,81.569 126.836,124.736 127.5,168C 126.809,169.067 126.309,170.234 126,171.5C 125.5,171 125,170.5 124.5,170C 120.5,169.333 116.5,169.333 112.5,170C 112.784,171.956 112.784,174.123 112.5,176.5C 109.833,176.5 107.167,176.5 104.5,176.5C 104.5,176.167 104.5,175.833 104.5,175.5C 106.5,175.5 108.5,175.5 110.5,175.5C 111.468,173.393 111.802,171.059 111.5,168.5C 116.167,168.5 120.833,168.5 125.5,168.5C 125.5,125.5 125.5,82.5 125.5,39.5C 125.5,39.1667 125.5,38.8333 125.5,38.5 Z"/></g>
<g><path style="opacity:0.16" fill="#cacaca" d="M 32.5,17.5 C 34.8333,17.5 37.1667,17.5 39.5,17.5C 37.7354,18.4614 35.7354,18.7947 33.5,18.5C 33.5,20.8333 33.5,23.1667 33.5,25.5C 31.54,26.1383 29.7067,26.1383 28,25.5C 26.3871,27.85 25.5537,30.1834 25.5,32.5C 23.3821,33.9459 21.0488,34.6126 18.5,34.5C 18.3184,36.5914 18.6518,38.5914 19.5,40.5C 17.6825,39.847 15.6825,39.847 13.5,40.5C 13.5386,41.7562 13.0386,42.7562 12,43.5C 11.5,82.4986 11.3333,121.499 11.5,160.5C 12.8221,160.67 13.9887,160.337 15,159.5C 16.3024,160.085 17.469,160.751 18.5,161.5C 18.5,163.833 18.5,166.167 18.5,168.5C 18.1667,168.5 17.8333,168.5 17.5,168.5C 17.5,166.167 17.5,163.833 17.5,161.5C 15.1667,161.5 12.8333,161.5 10.5,161.5C 10.5,120.5 10.5,79.5 10.5,38.5C 12.8333,38.5 15.1667,38.5 17.5,38.5C 17.5,36.1667 17.5,33.8333 17.5,31.5C 19.8333,31.5 22.1667,31.5 24.5,31.5C 24.5,29.1667 24.5,26.8333 24.5,24.5C 26.8333,24.5 29.1667,24.5 31.5,24.5C 32.4682,22.3926 32.8016,20.0593 32.5,17.5 Z M 13.5,40.5 C 12.6365,41.463 11.9698,41.463 11.5,40.5C 12.2565,39.2267 12.9232,39.2267 13.5,40.5 Z"/></g>
<g><path style="opacity:0.992" fill="#030303" d="M 39.5,46.5 C 39.5,48.8333 39.5,51.1667 39.5,53.5C 37.1667,53.5 34.8333,53.5 32.5,53.5C 32.5,51.1667 32.5,48.8333 32.5,46.5C 34.8333,46.5 37.1667,46.5 39.5,46.5 Z"/></g>
<g><path style="opacity:0.992" fill="#040404" d="M 89.5,46.5 C 91.8333,46.5 94.1667,46.5 96.5,46.5C 96.5,48.8333 96.5,51.1667 96.5,53.5C 96.5,51.1667 96.5,48.8333 96.5,46.5C 94.1667,46.5 91.8333,46.5 89.5,46.5 Z"/></g>
<g><path style="opacity:1" fill="#313131" d="M 89.5,46.5 C 89.5,48.8333 89.5,51.1667 89.5,53.5C 91.8333,53.5 94.1667,53.5 96.5,53.5C 96.5,55.8333 96.5,58.1667 96.5,60.5C 91.8333,60.5 87.1667,60.5 82.5,60.5C 82.5,55.8333 82.5,51.1667 82.5,46.5C 84.8333,46.5 87.1667,46.5 89.5,46.5 Z"/></g>
<g><path style="opacity:0.478" fill="#727272" d="M 89.5,46.5 C 89.5,46.1667 89.5,45.8333 89.5,45.5C 91.8333,45.5 94.1667,45.5 96.5,45.5C 97.404,46.209 97.7373,47.209 97.5,48.5C 97.5,49.5 97.5,50.5 97.5,51.5C 97.5,51.8333 97.5,52.1667 97.5,52.5C 97.5,52.8333 97.5,53.1667 97.5,53.5C 97.1667,53.5 96.8333,53.5 96.5,53.5C 94.1667,53.5 91.8333,53.5 89.5,53.5C 89.5,51.1667 89.5,48.8333 89.5,46.5 Z"/></g>
<g><path style="opacity:0.014" fill="#f0f0f0" d="M 31.5,48.5 C 31.5,50.1667 31.5,51.8333 31.5,53.5C 28.9407,53.1984 26.6074,53.5318 24.5,54.5C 22.3369,55.2806 22.0036,54.4472 23.5,52C 26.4424,51.3031 29.1091,50.1364 31.5,48.5 Z"/></g>
<g><path style="opacity:1" fill="#313131" d="M 39.5,46.5 C 41.8333,46.5 44.1667,46.5 46.5,46.5C 46.5,51.1667 46.5,55.8333 46.5,60.5C 41.8333,60.5 37.1667,60.5 32.5,60.5C 32.5,58.1667 32.5,55.8333 32.5,53.5C 34.8333,53.5 37.1667,53.5 39.5,53.5C 39.5,51.1667 39.5,48.8333 39.5,46.5 Z"/></g>
<g><path style="opacity:0.486" fill="#717171" d="M 39.5,45.5 C 39.5,45.8333 39.5,46.1667 39.5,46.5C 37.1667,46.5 34.8333,46.5 32.5,46.5C 32.5,48.8333 32.5,51.1667 32.5,53.5C 32.1667,53.5 31.8333,53.5 31.5,53.5C 31.5,51.8333 31.5,50.1667 31.5,48.5C 31.5,48.1667 31.5,47.8333 31.5,47.5C 33.6353,45.631 36.3019,44.9644 39.5,45.5 Z"/></g>
<g><path style="opacity:0.078" fill="#d3d3d3" d="M 97.5,48.5 C 98.3094,49.4687 99.3094,50.3021 100.5,51C 100.167,51.3333 99.8333,51.6667 99.5,52C 101.669,52.4294 103.669,51.9294 105.5,50.5C 109.375,51.8468 109.375,53.0135 105.5,54C 106.167,54.3333 106.833,54.6667 107.5,55C 106.008,56.9912 105.008,59.1578 104.5,61.5C 104.5,58.8333 104.5,56.1667 104.5,53.5C 102.167,53.5 99.8333,53.5 97.5,53.5C 97.5,53.1667 97.5,52.8333 97.5,52.5C 98.8333,52.1667 98.8333,51.8333 97.5,51.5C 97.5,50.5 97.5,49.5 97.5,48.5 Z"/></g>
<g><path style="opacity:0.999" fill="#060606" d="M 31.5,53.5 C 31.8333,53.5 32.1667,53.5 32.5,53.5C 32.5,55.8333 32.5,58.1667 32.5,60.5C 37.1667,60.5 41.8333,60.5 46.5,60.5C 46.5,62.8333 46.5,65.1667 46.5,67.5C 39.5,67.5 32.5,67.5 25.5,67.5C 25.7947,65.2646 25.4614,63.2646 24.5,61.5C 24.5,59.1667 24.5,56.8333 24.5,54.5C 26.6074,53.5318 28.9407,53.1984 31.5,53.5 Z"/></g>
<g><path style="opacity:0.999" fill="#0c0c0c" d="M 96.5,53.5 C 96.8333,53.5 97.1667,53.5 97.5,53.5C 99.8333,53.5 102.167,53.5 104.5,53.5C 104.5,56.1667 104.5,58.8333 104.5,61.5C 105.641,63.5487 105.641,65.5487 104.5,67.5C 97.1667,67.5 89.8333,67.5 82.5,67.5C 82.5,65.1667 82.5,62.8333 82.5,60.5C 87.1667,60.5 91.8333,60.5 96.5,60.5C 96.5,58.1667 96.5,55.8333 96.5,53.5 Z"/></g>
<g><path style="opacity:0.112" fill="#ececec" d="M 54.5,56.5 C 55.2485,57.531 55.9152,58.6976 56.5,60C 53.5185,60.9153 50.8518,62.4153 48.5,64.5C 47.2888,65.2739 47.2888,66.1072 48.5,67C 47.9558,67.7172 47.2891,68.2172 46.5,68.5C 46.5,68.1667 46.5,67.8333 46.5,67.5C 46.5,65.1667 46.5,62.8333 46.5,60.5C 48.8333,60.5 51.1667,60.5 53.5,60.5C 54.4345,59.4324 54.7678,58.099 54.5,56.5 Z"/></g>
<g><path style="opacity:0.326" fill="#a7a7a7" d="M 24.5,61.5 C 25.4614,63.2646 25.7947,65.2646 25.5,67.5C 32.5,67.5 39.5,67.5 46.5,67.5C 46.5,67.8333 46.5,68.1667 46.5,68.5C 38.8261,68.6664 31.1594,68.4997 23.5,68C 22.273,66.4126 22.6063,65.0793 24.5,64C 23.8333,63.6667 23.1667,63.3333 22.5,63C 23.4158,62.7216 24.0825,62.2216 24.5,61.5 Z"/></g>
<g><path style="opacity:0.325" fill="#a9a9a9" d="M 82.5,67.5 C 89.8333,67.5 97.1667,67.5 104.5,67.5C 97.4322,68.1822 90.2655,68.8489 83,69.5C 82.6012,69.2716 82.4346,68.9382 82.5,68.5C 82.5,68.1667 82.5,67.8333 82.5,67.5 Z"/></g>
<g><path style="opacity:0.209" fill="#a5a5a5" d="M 110.5,39.5 C 113.167,39.5 115.833,39.5 118.5,39.5C 118.5,80.1667 118.5,120.833 118.5,161.5C 116.167,161.5 113.833,161.5 111.5,161.5C 111.5,163.833 111.5,166.167 111.5,168.5C 111.167,168.5 110.833,168.5 110.5,168.5C 110.5,168.167 110.5,167.833 110.5,167.5C 110.335,164.482 110.502,161.482 111,158.5C 112.707,157.862 114.54,157.862 116.5,158.5C 116.354,120.9 116.687,83.4003 117.5,46C 117.456,44.2358 117.122,42.5691 116.5,41C 114.292,40.8091 112.292,40.3091 110.5,39.5 Z"/></g>
<g><path style="opacity:0.017" fill="#eeeeee" d="M 75.5,63.5 C 75.5106,65.0174 76.1772,66.1841 77.5,67C 76.4238,68.7261 76.2571,70.5594 77,72.5C 79.0248,72.072 80.8581,72.7387 82.5,74.5C 80.1667,74.5 77.8333,74.5 75.5,74.5C 75.5,72.1667 75.5,69.8333 75.5,67.5C 68.1667,67.5 60.8333,67.5 53.5,67.5C 53.5,69.8333 53.5,72.1667 53.5,74.5C 51.1667,74.5 48.8333,74.5 46.5,74.5C 46.1667,74.5 45.8333,74.5 45.5,74.5C 45.3932,72.6214 45.8932,72.2881 47,73.5C 47.3076,72.6919 47.8076,72.0253 48.5,71.5C 49.3148,73.2759 50.4815,73.9426 52,73.5C 51.8333,71.6667 51.6667,69.8333 51.5,68C 52.09,66.7011 53.09,65.8678 54.5,65.5C 61.1112,66.4537 67.6112,66.787 74,66.5C 74.6172,65.5509 74.4506,64.7175 73.5,64C 74.0944,63.5357 74.7611,63.369 75.5,63.5 Z"/></g>
<g><path style="opacity:0.184" fill="#b8b8b8" d="M 45.5,74.5 C 45.8333,74.5 46.1667,74.5 46.5,74.5C 46.5,74.8333 46.5,75.1667 46.5,75.5C 46.5,87.1667 46.5,98.8333 46.5,110.5C 48.8333,110.5 51.1667,110.5 53.5,110.5C 53.5,110.833 53.5,111.167 53.5,111.5C 50.8333,111.5 48.1667,111.5 45.5,111.5C 45.5,99.1667 45.5,86.8333 45.5,74.5 Z"/></g>
<g><path style="opacity:0.999" fill="#010101" d="M 46.5,75.5 C 48.8333,75.5 51.1667,75.5 53.5,75.5C 53.5,87.1667 53.5,98.8333 53.5,110.5C 51.1667,110.5 48.8333,110.5 46.5,110.5C 46.5,98.8333 46.5,87.1667 46.5,75.5 Z"/></g>
<g><path style="opacity:1" fill="#333333" d="M 82.5,74.5 C 82.5,74.8333 82.5,75.1667 82.5,75.5C 80.1667,75.5 77.8333,75.5 75.5,75.5C 75.5,87.1667 75.5,98.8333 75.5,110.5C 77.8333,110.5 80.1667,110.5 82.5,110.5C 80.3926,111.468 78.0593,111.802 75.5,111.5C 75.5,113.833 75.5,116.167 75.5,118.5C 68.1667,118.5 60.8333,118.5 53.5,118.5C 53.5,116.167 53.5,113.833 53.5,111.5C 53.5,111.167 53.5,110.833 53.5,110.5C 53.5,98.8333 53.5,87.1667 53.5,75.5C 51.1667,75.5 48.8333,75.5 46.5,75.5C 46.5,75.1667 46.5,74.8333 46.5,74.5C 48.8333,74.5 51.1667,74.5 53.5,74.5C 53.5,72.1667 53.5,69.8333 53.5,67.5C 60.8333,67.5 68.1667,67.5 75.5,67.5C 75.5,69.8333 75.5,72.1667 75.5,74.5C 77.8333,74.5 80.1667,74.5 82.5,74.5 Z"/></g>
<g><path style="opacity:0.999" fill="#040404" d="M 54.5,68.5 C 61.1667,68.5 67.8333,68.5 74.5,68.5C 74.5,70.8333 74.5,73.1667 74.5,75.5C 67.8333,75.5 61.1667,75.5 54.5,75.5C 54.5,73.1667 54.5,70.8333 54.5,68.5 Z"/></g>
<g><path style="opacity:0.999" fill="#010101" d="M 82.5,75.5 C 82.5,87.1667 82.5,98.8333 82.5,110.5C 80.1667,110.5 77.8333,110.5 75.5,110.5C 75.5,98.8333 75.5,87.1667 75.5,75.5C 77.8333,75.5 80.1667,75.5 82.5,75.5 Z"/></g>
<g><path style="opacity:0.189" fill="#d2d2d2" d="M 82.5,74.5 C 82.8576,85.742 83.8576,96.9087 85.5,108C 84.3589,109.617 83.5255,111.45 83,113.5C 80.0893,111.892 77.9226,113.059 76.5,117C 77.7119,118.107 77.3786,118.607 75.5,118.5C 75.5,116.167 75.5,113.833 75.5,111.5C 78.0593,111.802 80.3926,111.468 82.5,110.5C 82.5,98.8333 82.5,87.1667 82.5,75.5C 82.5,75.1667 82.5,74.8333 82.5,74.5 Z"/></g>
<g><path style="opacity:0.999" fill="#030303" d="M 54.5,110.5 C 61.1667,110.5 67.8333,110.5 74.5,110.5C 74.5,112.833 74.5,115.167 74.5,117.5C 67.8333,117.5 61.1667,117.5 54.5,117.5C 54.5,115.167 54.5,112.833 54.5,110.5 Z"/></g>
<g><path style="opacity:0.016" fill="#fbfbfb" d="M 45.5,111.5 C 48.1667,111.5 50.8333,111.5 53.5,111.5C 53.5,113.833 53.5,116.167 53.5,118.5C 60.8333,118.5 68.1667,118.5 75.5,118.5C 75.2172,119.289 74.7172,119.956 74,120.5C 68.1404,119.273 61.9737,119.273 55.5,120.5C 54.8333,120.167 54.1667,119.833 53.5,119.5C 52.0319,117.208 51.0319,115.041 50.5,113C 49.5509,112.383 48.7175,112.549 48,113.5C 47.0053,112.934 46.172,112.267 45.5,111.5 Z"/></g>
<g><path style="opacity:0.016" fill="#f6f6f6" d="M 18.5,161.5 C 19.4614,163.265 19.7947,165.265 19.5,167.5C 25.2721,168.605 30.9388,168.605 36.5,167.5C 36.2594,165.102 36.9261,163.102 38.5,161.5C 38.5,163.833 38.5,166.167 38.5,168.5C 36.5,168.5 34.5,168.5 32.5,168.5C 32.1667,168.5 31.8333,168.5 31.5,168.5C 30.1667,168.833 30.1667,169.167 31.5,169.5C 31.5,171.5 31.5,173.5 31.5,175.5C 29.5,175.5 27.5,175.5 25.5,175.5C 25.5,173.167 25.5,170.833 25.5,168.5C 23.1667,168.5 20.8333,168.5 18.5,168.5C 18.5,166.167 18.5,163.833 18.5,161.5 Z"/></g>
<g><path style="opacity:0.163" fill="#d7d7d7" d="M 59.5,175.5 C 57.5,175.5 55.5,175.5 53.5,175.5C 53.5,173.167 53.5,170.833 53.5,168.5C 51.1667,168.5 48.8333,168.5 46.5,168.5C 46.5,166.167 46.5,163.833 46.5,161.5C 44.1667,161.5 41.8333,161.5 39.5,161.5C 39.5,163.833 39.5,166.167 39.5,168.5C 39.1667,168.5 38.8333,168.5 38.5,168.5C 38.5,166.167 38.5,163.833 38.5,161.5C 38.6107,160.883 38.944,160.383 39.5,160C 44.2599,158.526 47.9265,159.859 50.5,164C 49.7203,165.073 49.887,166.24 51,167.5C 53.0902,166.209 54.4236,166.876 55,169.5C 55.3333,169.167 55.6667,168.833 56,168.5C 56.6838,169.784 56.5171,170.951 55.5,172C 57.3237,172.66 58.657,173.827 59.5,175.5 Z"/></g>
<g><path style="opacity:0.99" fill="#040404" d="M 46.5,168.5 C 44.1667,168.5 41.8333,168.5 39.5,168.5C 39.5,166.167 39.5,163.833 39.5,161.5C 41.8333,161.5 44.1667,161.5 46.5,161.5C 46.5,163.833 46.5,166.167 46.5,168.5 Z"/></g>
<g><path style="opacity:0.013" fill="#ececec" d="M 110.5,167.5 C 110.5,167.833 110.5,168.167 110.5,168.5C 108.167,168.5 105.833,168.5 103.5,168.5C 103.5,170.833 103.5,173.167 103.5,175.5C 101.5,175.5 99.5,175.5 97.5,175.5C 97.8016,172.941 97.4682,170.607 96.5,168.5C 94.1667,168.5 91.8333,168.5 89.5,168.5C 89.5,166.167 89.5,163.833 89.5,161.5C 87.1667,161.5 84.8333,161.5 82.5,161.5C 82.5,163.833 82.5,166.167 82.5,168.5C 80.1667,168.5 77.8333,168.5 75.5,168.5C 75.5,170.833 75.5,173.167 75.5,175.5C 73.1667,175.5 70.8333,175.5 68.5,175.5C 67.5318,177.607 67.1984,179.941 67.5,182.5C 65.5,182.5 63.5,182.5 61.5,182.5C 61.5,180.5 61.5,178.5 61.5,176.5C 62.1667,176.5 62.5,176.167 62.5,175.5C 64.7463,175.064 66.9129,174.397 69,173.5C 69.3333,173.833 69.6667,174.167 70,174.5C 71.1667,173.333 72.3333,172.167 73.5,171C 72.1667,170 72.1667,169 73.5,168C 74.7659,167.691 75.9326,167.191 77,166.5C 77.3333,166.833 77.6667,167.167 78,167.5C 78.9025,166.299 80.0692,165.465 81.5,165C 80.0691,162.462 80.7358,160.628 83.5,159.5C 85.7646,159.676 88.098,160.01 90.5,160.5C 92.4414,162.316 93.1081,164.316 92.5,166.5C 93.6507,167.731 94.8173,167.731 96,166.5C 98.8916,167.842 100.225,170.175 100,173.5C 101.646,171.945 101.979,170.279 101,168.5C 101.333,168.833 101.667,169.167 102,169.5C 104.456,167.679 107.289,167.012 110.5,167.5 Z"/></g>
<g><path style="opacity:0.992" fill="#060606" d="M 89.5,168.5 C 87.1667,168.5 84.8333,168.5 82.5,168.5C 82.5,166.167 82.5,163.833 82.5,161.5C 84.8333,161.5 87.1667,161.5 89.5,161.5C 89.5,163.833 89.5,166.167 89.5,168.5 Z"/></g>
<g><path style="opacity:0.175" fill="#bebebe" d="M 31.5,168.5 C 31.8333,168.5 32.1667,168.5 32.5,168.5C 32.5,170.833 32.5,173.167 32.5,175.5C 34.8333,175.5 37.1667,175.5 39.5,175.5C 39.5,173.167 39.5,170.833 39.5,168.5C 41.8333,168.5 44.1667,168.5 46.5,168.5C 48.8333,168.5 51.1667,168.5 53.5,168.5C 53.5,170.833 53.5,173.167 53.5,175.5C 53.5,177.833 53.5,180.167 53.5,182.5C 55.8333,182.5 58.1667,182.5 60.5,182.5C 60.5,185.167 60.5,187.833 60.5,190.5C 59.5318,188.393 59.1984,186.059 59.5,183.5C 57.326,183.92 55.326,183.92 53.5,183.5C 52.7696,181.659 52.1029,179.825 51.5,178C 52.7059,176.982 52.3726,176.482 50.5,176.5C 49.3527,176.818 48.5194,177.484 48,178.5C 46.3555,176.075 45.1888,173.408 44.5,170.5C 43.2638,169.754 41.9305,169.421 40.5,169.5C 40.5,171.833 40.5,174.167 40.5,176.5C 38.1667,176.5 35.8333,176.5 33.5,176.5C 34.3205,184.777 30.9872,186.777 23.5,182.5C 23.6236,181.893 23.9569,181.56 24.5,181.5C 24.5,182.167 24.8333,182.5 25.5,182.5C 27.5,182.5 29.5,182.5 31.5,182.5C 31.5,180.167 31.5,177.833 31.5,175.5C 31.5,173.5 31.5,171.5 31.5,169.5C 31.5,169.167 31.5,168.833 31.5,168.5 Z"/></g>
<g><path style="opacity:0.994" fill="#0e0e0e" d="M 32.5,168.5 C 34.5,168.5 36.5,168.5 38.5,168.5C 38.8333,168.5 39.1667,168.5 39.5,168.5C 39.5,170.833 39.5,173.167 39.5,175.5C 37.1667,175.5 34.8333,175.5 32.5,175.5C 32.5,173.167 32.5,170.833 32.5,168.5 Z"/></g>
<g><path style="opacity:0.994" fill="#080808" d="M 46.5,168.5 C 48.8333,168.5 51.1667,168.5 53.5,168.5C 53.5,170.833 53.5,173.167 53.5,175.5C 51.1667,175.5 48.8333,175.5 46.5,175.5C 46.5,173.167 46.5,170.833 46.5,168.5 Z"/></g>
<g><path style="opacity:0.994" fill="#070707" d="M 82.5,168.5 C 82.5,170.833 82.5,173.167 82.5,175.5C 80.1667,175.5 77.8333,175.5 75.5,175.5C 75.5,173.167 75.5,170.833 75.5,168.5C 77.8333,168.5 80.1667,168.5 82.5,168.5 Z"/></g>
<g><path style="opacity:0.991" fill="#0f0f0f" d="M 89.5,168.5 C 91.8333,168.5 94.1667,168.5 96.5,168.5C 96.5,170.833 96.5,173.167 96.5,175.5C 94.1667,175.5 91.8333,175.5 89.5,175.5C 89.5,173.167 89.5,170.833 89.5,168.5 Z"/></g>
<g><path style="opacity:0.355" fill="#cbcbcb" d="M 82.5,168.5 C 84.8333,168.5 87.1667,168.5 89.5,168.5C 89.5,170.833 89.5,173.167 89.5,175.5C 91.8333,175.5 94.1667,175.5 96.5,175.5C 96.5,178.167 96.5,180.833 96.5,183.5C 95.8347,181.302 95.1681,178.969 94.5,176.5C 93.8933,176.624 93.56,176.957 93.5,177.5C 91.8828,176.962 90.2161,176.629 88.5,176.5C 87.1667,174.167 87.1667,171.833 88.5,169.5C 86.8333,169.5 85.1667,169.5 83.5,169.5C 84.7333,176.023 82.4,178.356 76.5,176.5C 76.8016,179.059 76.4682,181.393 75.5,183.5C 75.5,183.167 75.5,182.833 75.5,182.5C 75.5,180.167 75.5,177.833 75.5,175.5C 77.8333,175.5 80.1667,175.5 82.5,175.5C 82.5,173.167 82.5,170.833 82.5,168.5 Z"/></g>
<g><path style="opacity:0.039" fill="#fefffe" d="M 85.5,170.5 C 86.8333,171.167 86.8333,171.167 85.5,170.5 Z"/></g>
<g><path style="opacity:0.998" fill="#080808" d="M 25.5,175.5 C 27.5,175.5 29.5,175.5 31.5,175.5C 31.5,177.833 31.5,180.167 31.5,182.5C 29.5,182.5 27.5,182.5 25.5,182.5C 25.5,180.167 25.5,177.833 25.5,175.5 Z"/></g>
<g><path style="opacity:0.994" fill="#121212" d="M 53.5,175.5 C 55.5,175.5 57.5,175.5 59.5,175.5C 59.8333,175.5 60.1667,175.5 60.5,175.5C 60.5,177.833 60.5,180.167 60.5,182.5C 58.1667,182.5 55.8333,182.5 53.5,182.5C 53.5,180.167 53.5,177.833 53.5,175.5 Z"/></g>
<g><path style="opacity:0.993" fill="#121212" d="M 68.5,175.5 C 70.8333,175.5 73.1667,175.5 75.5,175.5C 75.5,177.833 75.5,180.167 75.5,182.5C 73.1667,182.5 70.8333,182.5 68.5,182.5C 68.5,180.167 68.5,177.833 68.5,175.5 Z"/></g>
<g><path style="opacity:0.999" fill="#070707" d="M 97.5,175.5 C 99.5,175.5 101.5,175.5 103.5,175.5C 103.5,177.833 103.5,180.167 103.5,182.5C 101.5,182.5 99.5,182.5 97.5,182.5C 97.5,180.167 97.5,177.833 97.5,175.5 Z"/></g>
<g><path style="opacity:0.784" fill="#474747" d="M 110.5,168.5 C 110.833,168.5 111.167,168.5 111.5,168.5C 111.802,171.059 111.468,173.393 110.5,175.5C 110.5,173.5 110.5,171.5 110.5,169.5C 108.5,169.5 106.5,169.5 104.5,169.5C 104.5,171.5 104.5,173.5 104.5,175.5C 104.5,175.833 104.5,176.167 104.5,176.5C 104.5,178.5 104.5,180.5 104.5,182.5C 104.167,182.5 103.833,182.5 103.5,182.5C 103.5,180.167 103.5,177.833 103.5,175.5C 103.5,173.167 103.5,170.833 103.5,168.5C 105.833,168.5 108.167,168.5 110.5,168.5 Z"/></g>
<g><path style="opacity:0.999" fill="#010101" d="M 110.5,175.5 C 108.5,175.5 106.5,175.5 104.5,175.5C 104.5,173.5 104.5,171.5 104.5,169.5C 106.5,169.5 108.5,169.5 110.5,169.5C 110.5,171.5 110.5,173.5 110.5,175.5 Z"/></g>
<g><path style="opacity:0.004" fill="#fefffe" d="M 77.5,177.5 C 78.8333,178.167 78.8333,178.167 77.5,177.5 Z"/></g>
<g><path style="opacity:0.008" fill="#fefffe" d="M 93.5,177.5 C 94.8333,178.167 94.8333,178.167 93.5,177.5 Z"/></g>
<g><path style="opacity:0.753" fill="#484848" d="M 17.5,168.5 C 17.8333,168.5 18.1667,168.5 18.5,168.5C 20.8333,168.5 23.1667,168.5 25.5,168.5C 25.5,170.833 25.5,173.167 25.5,175.5C 25.5,177.833 25.5,180.167 25.5,182.5C 24.8333,182.5 24.5,182.167 24.5,181.5C 24.5,179.833 24.5,178.167 24.5,176.5C 24.5,176.167 24.5,175.833 24.5,175.5C 24.5,173.5 24.5,171.5 24.5,169.5C 22.5,169.5 20.5,169.5 18.5,169.5C 18.5,171.5 18.5,173.5 18.5,175.5C 17.5318,173.393 17.1984,171.059 17.5,168.5 Z"/></g>
<g><path style="opacity:0.995" fill="#030303" d="M 24.5,175.5 C 22.5,175.5 20.5,175.5 18.5,175.5C 18.5,173.5 18.5,171.5 18.5,169.5C 20.5,169.5 22.5,169.5 24.5,169.5C 24.5,171.5 24.5,173.5 24.5,175.5 Z"/></g>
<g><path style="opacity:0.624" fill="#6d6d6d" d="M 62.5,175.5 C 61.8333,175.5 61.5,175.833 61.5,176.5C 61.5,178.5 61.5,180.5 61.5,182.5C 63.5,182.5 65.5,182.5 67.5,182.5C 67.1984,179.941 67.5318,177.607 68.5,175.5C 68.5,177.833 68.5,180.167 68.5,182.5C 70.8333,182.5 73.1667,182.5 75.5,182.5C 75.5,182.833 75.5,183.167 75.5,183.5C 74.0357,184.405 72.7024,184.405 71.5,183.5C 70.5,183.5 69.5,183.5 68.5,183.5C 68.5,185.833 68.5,188.167 68.5,190.5C 65.9325,191.232 63.2658,191.232 60.5,190.5C 60.5,187.833 60.5,185.167 60.5,182.5C 60.5,180.167 60.5,177.833 60.5,175.5C 61.1667,174.167 61.8333,174.167 62.5,175.5 Z"/></g>
<g><path style="opacity:0.495" fill="#828282" d="M 96.5,168.5 C 97.4682,170.607 97.8016,172.941 97.5,175.5C 97.5,177.833 97.5,180.167 97.5,182.5C 99.5,182.5 101.5,182.5 103.5,182.5C 103.833,182.5 104.167,182.5 104.5,182.5C 104.631,183.376 104.298,184.043 103.5,184.5C 101.253,183.626 98.9201,183.292 96.5,183.5C 96.5,180.833 96.5,178.167 96.5,175.5C 96.5,173.167 96.5,170.833 96.5,168.5 Z"/></g>
<g><path style="opacity:0.999" fill="#010101" d="M 61.5,183.5 C 63.5,183.5 65.5,183.5 67.5,183.5C 67.5,185.5 67.5,187.5 67.5,189.5C 65.5,189.5 63.5,189.5 61.5,189.5C 61.5,187.5 61.5,185.5 61.5,183.5 Z"/></g>
<g><path style="opacity:0.029" fill="#fefefe" d="M 71.5,183.5 C 70.1047,185.693 69.1047,188.026 68.5,190.5C 68.5,188.167 68.5,185.833 68.5,183.5C 69.5,183.5 70.5,183.5 71.5,183.5 Z"/></g>
</svg>
